<?xml version="1.0" encoding="utf-8"?>
<!DOCTYPE svg PUBLIC "-//W3C//DTD SVG 1.1//EN" "http://www.w3.org/Graphics/SVG/1.1/DTD/svg11.dtd">
<svg version="1.1" xmlns="http://www.w3.org/2000/svg" xmlns:xlink="http://www.w3.org/1999/xlink" x="0px" y="0px" width="310px" height="310px" viewBox="0 0 3100 3100" preserveAspectRatio="xMidYMid meet">
<g id="layer101">
 <path fill="#257a37" d="M546 3063 l-509 -3 7 -83 c10 -123 33 -221 77 -332 130 -327 388 -518 773 -574 l121 -18 -79 -7 c-243 -22 -452 -113 -610 -265 -190 -183 -287 -437 -287 -750 1 -486 277 -853 721 -959 25 -6 68 -17 95 -23 36 -9 346 -13 1128 -16 l1077 -4 0 28 c0 54 -49 241 -89 344 -74 189 -203 362 -346 464 -122 87 -348 173 -464 176 -20 1 13 10 74 20 250 43 417 128 567 287 127 135 203 302 243 535 28 159 16 336 -36 510 -98 331 -339 556 -681 637 -142 33 -283 40 -788 38 -267 -2 -714 -4 -994 -5z"/>
 </g>
<g id="layer102">
 <path fill="#287a47" d="M546 3063 l-509 -3 7 -83 c10 -123 33 -221 77 -332 130 -327 388 -518 773 -574 l121 -18 -79 -7 c-243 -22 -452 -113 -610 -265 -190 -183 -287 -437 -287 -750 1 -486 277 -853 721 -959 25 -6 68 -17 95 -23 36 -9 346 -13 1128 -16 l1077 -4 0 28 c0 54 -49 241 -89 344 -74 189 -203 362 -346 464 -122 87 -348 173 -464 176 -20 1 13 10 74 20 250 43 417 128 567 287 184 196 285 525 253 827 -6 52 -10 65 -16 50 -6 -14 -7 -11 -3 12 7 42 -27 174 -72 278 -39 91 -125 221 -143 217 -7 -1 -10 2 -7 7 8 12 -119 130 -177 164 -26 16 -52 25 -57 22 -6 -4 -9 -1 -8 5 4 15 -120 71 -145 66 -9 -2 -15 0 -12 4 8 13 -158 48 -280 60 -63 6 -317 9 -595 8 -267 -2 -714 -4 -994 -5z m2189 -243 c3 -5 4 -10 1 -10 -3 0 -8 5 -11 10 -3 6 -4 10 -1 10 3 0 8 -4 11 -10z m-10 -20 c3 -5 4 -10 1 -10 -3 0 -8 5 -11 10 -3 6 -4 10 -1 10 3 0 8 -4 11 -10z m200 -220 c3 -5 4 -10 1 -10 -3 0 -8 5 -11 10 -3 6 -4 10 -1 10 3 0 8 -4 11 -10z m12 -37 c-4 -3 -7 0 -7 7 0 7 3 10 7 7 3 -4 3 -10 0 -14z m60 -160 c-4 -3 -7 0 -7 7 0 7 3 10 7 7 3 -4 3 -10 0 -14z m50 -250 c-4 -3 -7 0 -7 7 0 7 3 10 7 7 3 -4 3 -10 0 -14z m-229 -70 c-136 -2 -361 -2 -500 0 -139 1 -28 2 247 2 275 0 389 -1 253 -2z"/>
 </g>
<g id="layer103">
 <path fill="#1b824f" d="M546 3063 l-509 -3 7 -83 c10 -123 33 -221 77 -332 130 -327 388 -518 773 -574 l121 -18 -79 -7 c-243 -22 -452 -113 -610 -265 -190 -183 -287 -437 -287 -750 1 -486 277 -853 721 -959 25 -6 68 -17 95 -23 36 -9 346 -13 1128 -16 l1077 -4 0 28 c0 54 -49 241 -89 344 -74 189 -203 362 -346 464 -122 87 -348 173 -464 176 -20 1 13 10 74 20 250 43 417 128 567 287 146 155 233 372 257 642 l6 75 -500 0 -500 0 491 2 492 3 6 23 c3 12 5 36 5 52 l-1 30 -7 -30 c-7 -27 -8 -24 -15 26 -5 32 -5 72 -2 90 5 28 4 30 -4 12 -11 -26 -26 -32 -16 -7 3 9 -1 43 -10 76 -8 33 -13 63 -10 66 3 3 6 -3 6 -13 0 -10 3 -16 6 -12 3 3 -2 29 -11 57 -9 28 -19 49 -21 47 -3 -2 0 -17 6 -32 6 -15 9 -29 7 -31 -3 -3 -67 143 -75 171 -2 6 8 -10 22 -35 30 -54 34 -46 6 11 -12 22 -24 37 -29 35 -4 -3 -25 18 -45 48 -38 55 -45 72 -23 60 6 -4 4 2 -7 14 -10 12 -23 20 -30 19 -6 -1 -10 4 -8 11 1 8 -1 11 -6 8 -10 -6 -55 38 -47 46 3 2 -7 15 -22 29 -14 13 -23 19 -19 12 15 -26 -13 -20 -40 9 l-29 32 30 -18 30 -17 -23 20 c-13 11 -30 17 -38 14 -16 -6 -47 15 -39 27 3 4 -1 8 -8 7 -47 -1 -70 4 -60 14 8 8 17 8 34 -1 23 -11 23 -10 5 4 -12 9 -28 13 -39 10 -13 -4 -17 -2 -13 5 5 7 1 8 -10 4 -11 -4 -15 -2 -11 4 4 6 0 14 -9 17 -24 9 -31 7 -14 -4 22 -14 -3 -12 -41 4 -19 8 -52 16 -74 19 -22 3 -52 10 -65 15 -14 5 -59 13 -100 18 -71 8 -73 8 -35 15 25 5 14 6 -29 2 -48 -3 -66 -2 -62 6 7 11 -63 11 -1518 4z m1945 -156 c-10 -9 -11 -8 -5 6 3 10 9 15 12 12 3 -3 0 -11 -7 -18z m240 -84 c13 -16 12 -17 -3 -4 -17 13 -22 21 -14 21 2 0 10 -8 17 -17z m-6 -23 c3 -5 4 -10 1 -10 -3 0 -8 5 -11 10 -3 6 -4 10 -1 10 3 0 8 -4 11 -10z m100 -69 c3 -5 2 -12 -3 -15 -5 -3 -9 1 -9 9 0 17 3 19 12 6z"/>
 <path fill="#1b824f" d="M2223 3043 c9 -2 23 -2 30 0 6 3 -1 5 -18 5 -16 0 -22 -2 -12 -5z"/>
 <path fill="#1b824f" d="M2278 3033 c6 -2 18 -2 25 0 6 3 1 5 -13 5 -14 0 -19 -2 -12 -5z"/>
 <path fill="#1b824f" d="M2328 3023 c7 -3 16 -2 19 1 4 3 -2 6 -13 5 -11 0 -14 -3 -6 -6z"/>
 <path fill="#1b824f" d="M2368 3013 c7 -3 16 -2 19 1 4 3 -2 6 -13 5 -11 0 -14 -3 -6 -6z"/>
 <path fill="#1b824f" d="M2403 3003 c4 -3 10 -3 14 0 3 4 0 7 -7 7 -7 0 -10 -3 -7 -7z"/>
 <path fill="#1b824f" d="M2433 2993 c4 -3 10 -3 14 0 3 4 0 7 -7 7 -7 0 -10 -3 -7 -7z"/>
 <path fill="#1b824f" d="M2615 2910 c3 -5 8 -10 11 -10 3 0 2 5 -1 10 -3 6 -8 10 -11 10 -3 0 -2 -4 1 -10z"/>
 <path fill="#1b824f" d="M2875 2663 c15 -24 30 -43 32 -43 7 0 -31 61 -46 73 -8 7 -2 -7 14 -30z"/>
 <path fill="#1b824f" d="M3010 2360 c0 -7 3 -10 7 -7 3 4 3 10 0 14 -4 3 -7 0 -7 -7z"/>
 <path fill="#1b824f" d="M3022 2320 c0 -14 2 -19 5 -12 2 6 2 18 0 25 -3 6 -5 1 -5 -13z"/>
 <path fill="#1b824f" d="M3042 2215 c0 -16 2 -22 5 -12 2 9 2 23 0 30 -3 6 -5 -1 -5 -18z"/>
 </g>
<g id="layer104">
 <path fill="#248445" d="M546 3063 l-509 -3 7 -83 c10 -123 33 -221 77 -332 130 -327 388 -518 773 -574 l121 -18 -79 -7 c-243 -22 -452 -113 -610 -265 -190 -183 -287 -437 -287 -750 1 -486 277 -853 721 -959 25 -6 68 -17 95 -23 36 -9 346 -13 1128 -16 l1077 -4 0 28 c0 54 -49 241 -89 344 -74 189 -203 362 -346 464 -122 87 -348 173 -464 176 -20 1 13 10 74 20 250 43 417 128 567 287 146 155 233 372 257 642 l6 75 -505 -3 -505 -2 0 497 c0 321 4 501 10 505 9 7 -242 7 -1519 1z"/>
 <path fill="#248445" d="M2098 3053 l-28 -4 0 -490 0 -489 489 0 489 0 6 23 c3 12 5 36 5 52 l-1 30 -7 -30 c-7 -27 -8 -24 -15 26 -5 32 -5 72 -2 90 5 28 4 30 -4 12 -11 -26 -26 -32 -16 -7 3 9 -1 43 -10 76 -8 33 -13 63 -10 66 3 3 6 -3 6 -13 0 -10 3 -16 6 -12 3 3 -2 29 -11 57 -9 28 -19 49 -21 47 -3 -2 0 -17 6 -32 6 -15 9 -29 7 -31 -3 -3 -67 143 -75 171 -2 6 8 -10 22 -35 30 -54 34 -46 6 11 -12 22 -24 37 -29 35 -4 -3 -25 18 -45 48 -38 55 -45 72 -23 60 6 -4 4 2 -7 14 -10 12 -23 20 -30 19 -6 -1 -10 4 -8 11 1 8 -1 11 -6 8 -10 -6 -55 38 -47 46 3 2 -7 15 -22 29 -14 13 -23 19 -19 12 15 -26 -13 -20 -40 9 l-29 32 30 -18 30 -17 -23 20 c-13 11 -30 17 -38 14 -16 -6 -47 15 -39 27 3 4 -1 8 -8 7 -47 -1 -70 4 -60 14 8 8 17 8 34 -1 23 -11 23 -10 5 4 -12 9 -28 13 -39 10 -13 -4 -17 -2 -13 5 5 7 1 8 -10 4 -11 -4 -15 -2 -11 4 4 6 0 14 -9 17 -24 9 -31 7 -14 -4 22 -14 -3 -12 -41 4 -19 8 -52 16 -74 19 -22 3 -52 10 -65 15 -14 5 -59 13 -100 18 -70 8 -72 9 -35 15 40 6 40 6 5 6 -19 0 -47 -2 -62 -4z m393 -146 c-10 -9 -11 -8 -5 6 3 10 9 15 12 12 3 -3 0 -11 -7 -18z m240 -84 c13 -16 12 -17 -3 -4 -17 13 -22 21 -14 21 2 0 10 -8 17 -17z m-6 -23 c3 -5 4 -10 1 -10 -3 0 -8 5 -11 10 -3 6 -4 10 -1 10 3 0 8 -4 11 -10z m100 -69 c3 -5 2 -12 -3 -15 -5 -3 -9 1 -9 9 0 17 3 19 12 6z"/>
 <path fill="#248445" d="M2223 3043 c9 -2 23 -2 30 0 6 3 -1 5 -18 5 -16 0 -22 -2 -12 -5z"/>
 <path fill="#248445" d="M2278 3033 c6 -2 18 -2 25 0 6 3 1 5 -13 5 -14 0 -19 -2 -12 -5z"/>
 <path fill="#248445" d="M2328 3023 c7 -3 16 -2 19 1 4 3 -2 6 -13 5 -11 0 -14 -3 -6 -6z"/>
 <path fill="#248445" d="M2368 3013 c7 -3 16 -2 19 1 4 3 -2 6 -13 5 -11 0 -14 -3 -6 -6z"/>
 <path fill="#248445" d="M2403 3003 c4 -3 10 -3 14 0 3 4 0 7 -7 7 -7 0 -10 -3 -7 -7z"/>
 <path fill="#248445" d="M2433 2993 c4 -3 10 -3 14 0 3 4 0 7 -7 7 -7 0 -10 -3 -7 -7z"/>
 <path fill="#248445" d="M2615 2910 c3 -5 8 -10 11 -10 3 0 2 5 -1 10 -3 6 -8 10 -11 10 -3 0 -2 -4 1 -10z"/>
 <path fill="#248445" d="M2875 2663 c15 -24 30 -43 32 -43 7 0 -31 61 -46 73 -8 7 -2 -7 14 -30z"/>
 <path fill="#248445" d="M3010 2360 c0 -7 3 -10 7 -7 3 4 3 10 0 14 -4 3 -7 0 -7 -7z"/>
 <path fill="#248445" d="M3022 2320 c0 -14 2 -19 5 -12 2 6 2 18 0 25 -3 6 -5 1 -5 -13z"/>
 <path fill="#248445" d="M3042 2215 c0 -16 2 -22 5 -12 2 9 2 23 0 30 -3 6 -5 -1 -5 -18z"/>
 </g>
<g id="layer105">
 <path fill="#da1e21" d="M546 3063 l-509 -3 7 -83 c10 -123 33 -221 77 -332 130 -327 388 -518 773 -574 l121 -18 -79 -7 c-243 -22 -452 -113 -610 -265 -190 -183 -287 -437 -287 -750 1 -486 277 -853 721 -959 25 -6 68 -17 95 -23 36 -9 346 -13 1128 -16 l1077 -4 0 28 c0 54 -49 241 -89 344 -74 189 -203 362 -346 464 -122 87 -348 173 -464 176 -20 1 13 10 74 20 250 43 417 128 567 287 146 155 233 372 257 642 l6 75 -505 -3 -505 -2 0 497 c0 321 4 501 10 505 9 7 -242 7 -1519 1z"/>
 <path fill="#da1e21" d="M2138 3053 c12 -2 30 -2 40 0 9 3 -1 5 -23 4 -22 0 -30 -2 -17 -4z"/>
 <path fill="#da1e21" d="M2223 3043 c9 -2 23 -2 30 0 6 3 -1 5 -18 5 -16 0 -22 -2 -12 -5z"/>
 <path fill="#da1e21" d="M2278 3033 c6 -2 18 -2 25 0 6 3 1 5 -13 5 -14 0 -19 -2 -12 -5z"/>
 <path fill="#da1e21" d="M2328 3023 c7 -3 16 -2 19 1 4 3 -2 6 -13 5 -11 0 -14 -3 -6 -6z"/>
 <path fill="#da1e21" d="M2368 3013 c7 -3 16 -2 19 1 4 3 -2 6 -13 5 -11 0 -14 -3 -6 -6z"/>
 <path fill="#da1e21" d="M2403 3003 c4 -3 10 -3 14 0 3 4 0 7 -7 7 -7 0 -10 -3 -7 -7z"/>
 <path fill="#da1e21" d="M2433 2993 c4 -3 10 -3 14 0 3 4 0 7 -7 7 -7 0 -10 -3 -7 -7z"/>
 <path fill="#da1e21" d="M2470 2980 c8 -5 20 -10 25 -10 6 0 3 5 -5 10 -8 5 -19 10 -25 10 -5 0 -3 -5 5 -10z"/>
 <path fill="#da1e21" d="M2531 2956 c2 -2 15 -9 29 -15 24 -11 24 -11 6 3 -16 13 -49 24 -35 12z"/>
 <path fill="#da1e21" d="M2615 2910 c3 -5 8 -10 11 -10 3 0 2 5 -1 10 -3 6 -8 10 -11 10 -3 0 -2 -4 1 -10z"/>
 <path fill="#da1e21" d="M2640 2897 c0 -3 12 -12 26 -22 15 -9 23 -12 20 -6 -7 11 -46 35 -46 28z"/>
 <path fill="#da1e21" d="M2720 2835 c13 -14 26 -25 28 -25 3 0 -5 11 -18 25 -13 14 -26 25 -28 25 -3 0 5 -11 18 -25z"/>
 <path fill="#da1e21" d="M2825 2730 c10 -11 20 -20 23 -20 3 0 -3 9 -13 20 -10 11 -20 20 -23 20 -3 0 3 -9 13 -20z"/>
 <path fill="#da1e21" d="M2875 2663 c15 -24 30 -43 32 -43 7 0 -31 61 -46 73 -8 7 -2 -7 14 -30z"/>
 <path fill="#da1e21" d="M2932 2565 c12 -24 23 -43 26 -41 4 5 -36 86 -43 86 -3 0 5 -20 17 -45z"/>
 <path fill="#da1e21" d="M2977 2470 c3 -14 12 -41 20 -60 11 -30 12 -31 8 -6 -4 16 -13 43 -20 60 -11 23 -13 25 -8 6z"/>
 <path fill="#da1e21" d="M3010 2360 c0 -7 3 -10 7 -7 3 4 3 10 0 14 -4 3 -7 0 -7 -7z"/>
 <path fill="#da1e21" d="M3022 2320 c0 -14 2 -19 5 -12 2 6 2 18 0 25 -3 6 -5 1 -5 -13z"/>
 <path fill="#da1e21" d="M3031 2274 c0 -11 3 -14 6 -6 3 7 2 16 -1 19 -3 4 -6 -2 -5 -13z"/>
 <path fill="#da1e21" d="M3042 2215 c0 -16 2 -22 5 -12 2 9 2 23 0 30 -3 6 -5 -1 -5 -18z"/>
 <path fill="#da1e21" d="M3053 2135 c0 -22 2 -30 4 -17 2 12 2 30 0 40 -3 9 -5 -1 -4 -23z"/>
 </g>
<g id="layer106">
 <path fill="#ed1b24" d="M546 3063 l-509 -3 7 -83 c10 -123 33 -221 77 -332 130 -327 388 -518 773 -574 l121 -18 -79 -7 c-243 -22 -452 -113 -610 -265 -190 -183 -287 -437 -287 -750 1 -486 277 -853 721 -959 25 -6 68 -17 95 -23 36 -9 346 -13 1128 -16 l1077 -4 -1 33 c-1 18 -5 47 -10 63 -6 22 -7 17 -3 -20 8 -65 -4 -53 -16 16 -21 124 -21 128 -5 79 l15 -45 -6 40 c-15 109 -116 348 -190 448 -31 42 -37 47 -52 35 -9 -7 -13 -8 -9 -2 3 6 -5 22 -18 34 -37 35 -30 48 8 15 17 -17 5 -1 -28 34 -57 60 -151 134 -205 161 -38 19 -23 7 63 -50 43 -29 76 -55 73 -57 -3 -3 -19 6 -35 20 -17 14 -55 39 -86 57 -30 17 -53 35 -50 39 2 5 -7 6 -20 3 -14 -2 -25 0 -25 7 0 5 8 8 18 6 9 -3 -6 6 -35 20 -89 44 -237 77 -313 69 l-65 -6 3 -489 2 -489 493 -3 492 -2 -500 0 -500 0 -3 498 -2 497 27 0 c51 0 267 40 333 61 383 124 609 434 649 889 l6 75 -505 -3 -505 -2 0 497 c0 321 4 501 10 505 9 7 -242 7 -1519 1z m1793 -2070 c100 -28 126 -40 88 -40 -15 0 -27 2 -27 6 0 9 -75 31 -104 31 -14 0 -28 5 -31 10 -3 6 -21 10 -38 11 -18 0 -41 5 -52 10 -37 16 76 -3 164 -28z m374 -211 c19 -20 23 -29 13 -29 -8 0 -13 4 -10 9 4 7 -8 12 -26 10 -3 0 -7 8 -7 19 -2 24 -2 24 30 -9z m141 -170 c76 -116 183 -380 146 -357 -5 3 -10 15 -10 26 0 10 -4 27 -9 37 -5 9 -14 35 -21 57 -17 53 -52 128 -63 136 -5 3 -9 10 -8 15 0 15 -59 114 -68 114 -5 0 -11 9 -14 20 -9 33 1 23 47 -48z"/>
 <path fill="#ed1b24" d="M2138 3053 c12 -2 30 -2 40 0 9 3 -1 5 -23 4 -22 0 -30 -2 -17 -4z"/>
 <path fill="#ed1b24" d="M2223 3043 c9 -2 23 -2 30 0 6 3 -1 5 -18 5 -16 0 -22 -2 -12 -5z"/>
 <path fill="#ed1b24" d="M2278 3033 c6 -2 18 -2 25 0 6 3 1 5 -13 5 -14 0 -19 -2 -12 -5z"/>
 <path fill="#ed1b24" d="M2328 3023 c7 -3 16 -2 19 1 4 3 -2 6 -13 5 -11 0 -14 -3 -6 -6z"/>
 <path fill="#ed1b24" d="M2368 3013 c7 -3 16 -2 19 1 4 3 -2 6 -13 5 -11 0 -14 -3 -6 -6z"/>
 <path fill="#ed1b24" d="M2403 3003 c4 -3 10 -3 14 0 3 4 0 7 -7 7 -7 0 -10 -3 -7 -7z"/>
 <path fill="#ed1b24" d="M2433 2993 c4 -3 10 -3 14 0 3 4 0 7 -7 7 -7 0 -10 -3 -7 -7z"/>
 <path fill="#ed1b24" d="M2470 2980 c8 -5 20 -10 25 -10 6 0 3 5 -5 10 -8 5 -19 10 -25 10 -5 0 -3 -5 5 -10z"/>
 <path fill="#ed1b24" d="M2531 2956 c2 -2 15 -9 29 -15 24 -11 24 -11 6 3 -16 13 -49 24 -35 12z"/>
 <path fill="#ed1b24" d="M2615 2910 c3 -5 8 -10 11 -10 3 0 2 5 -1 10 -3 6 -8 10 -11 10 -3 0 -2 -4 1 -10z"/>
 <path fill="#ed1b24" d="M2640 2897 c0 -3 12 -12 26 -22 15 -9 23 -12 20 -6 -7 11 -46 35 -46 28z"/>
 <path fill="#ed1b24" d="M2720 2835 c13 -14 26 -25 28 -25 3 0 -5 11 -18 25 -13 14 -26 25 -28 25 -3 0 5 -11 18 -25z"/>
 <path fill="#ed1b24" d="M2825 2730 c10 -11 20 -20 23 -20 3 0 -3 9 -13 20 -10 11 -20 20 -23 20 -3 0 3 -9 13 -20z"/>
 <path fill="#ed1b24" d="M2875 2663 c15 -24 30 -43 32 -43 7 0 -31 61 -46 73 -8 7 -2 -7 14 -30z"/>
 <path fill="#ed1b24" d="M2932 2565 c12 -24 23 -43 26 -41 4 5 -36 86 -43 86 -3 0 5 -20 17 -45z"/>
 <path fill="#ed1b24" d="M2977 2470 c3 -14 12 -41 20 -60 11 -30 12 -31 8 -6 -4 16 -13 43 -20 60 -11 23 -13 25 -8 6z"/>
 <path fill="#ed1b24" d="M3010 2360 c0 -7 3 -10 7 -7 3 4 3 10 0 14 -4 3 -7 0 -7 -7z"/>
 <path fill="#ed1b24" d="M3022 2320 c0 -14 2 -19 5 -12 2 6 2 18 0 25 -3 6 -5 1 -5 -13z"/>
 <path fill="#ed1b24" d="M3031 2274 c0 -11 3 -14 6 -6 3 7 2 16 -1 19 -3 4 -6 -2 -5 -13z"/>
 <path fill="#ed1b24" d="M3042 2215 c0 -16 2 -22 5 -12 2 9 2 23 0 30 -3 6 -5 -1 -5 -18z"/>
 <path fill="#ed1b24" d="M3053 2135 c0 -22 2 -30 4 -17 2 12 2 30 0 40 -3 9 -5 -1 -4 -23z"/>
 </g>
<g id="layer107">
 <path fill="#549745" d="M546 3063 l-509 -3 7 -83 c10 -123 33 -221 77 -332 130 -327 388 -518 773 -574 l121 -18 -79 -7 c-243 -22 -452 -113 -610 -265 -190 -183 -287 -437 -287 -750 1 -486 277 -853 721 -959 25 -6 68 -17 95 -23 36 -9 346 -13 1128 -16 l1077 -4 -1 33 c-1 18 -5 47 -10 63 -5 20 -6 11 -2 -28 l5 -57 -498 2 -499 3 -3 498 -2 497 27 0 c51 0 267 40 333 61 383 124 609 434 649 889 l6 75 -505 -3 -505 -2 0 497 c0 321 4 501 10 505 9 7 -242 7 -1519 1z"/>
 <path fill="#549745" d="M2138 3053 c12 -2 30 -2 40 0 9 3 -1 5 -23 4 -22 0 -30 -2 -17 -4z"/>
 <path fill="#549745" d="M2223 3043 c9 -2 23 -2 30 0 6 3 -1 5 -18 5 -16 0 -22 -2 -12 -5z"/>
 <path fill="#549745" d="M2278 3033 c6 -2 18 -2 25 0 6 3 1 5 -13 5 -14 0 -19 -2 -12 -5z"/>
 <path fill="#549745" d="M2328 3023 c7 -3 16 -2 19 1 4 3 -2 6 -13 5 -11 0 -14 -3 -6 -6z"/>
 <path fill="#549745" d="M2368 3013 c7 -3 16 -2 19 1 4 3 -2 6 -13 5 -11 0 -14 -3 -6 -6z"/>
 <path fill="#549745" d="M2403 3003 c4 -3 10 -3 14 0 3 4 0 7 -7 7 -7 0 -10 -3 -7 -7z"/>
 <path fill="#549745" d="M2433 2993 c4 -3 10 -3 14 0 3 4 0 7 -7 7 -7 0 -10 -3 -7 -7z"/>
 <path fill="#549745" d="M2470 2980 c8 -5 20 -10 25 -10 6 0 3 5 -5 10 -8 5 -19 10 -25 10 -5 0 -3 -5 5 -10z"/>
 <path fill="#549745" d="M2531 2956 c2 -2 15 -9 29 -15 24 -11 24 -11 6 3 -16 13 -49 24 -35 12z"/>
 <path fill="#549745" d="M2615 2910 c3 -5 8 -10 11 -10 3 0 2 5 -1 10 -3 6 -8 10 -11 10 -3 0 -2 -4 1 -10z"/>
 <path fill="#549745" d="M2640 2897 c0 -3 12 -12 26 -22 15 -9 23 -12 20 -6 -7 11 -46 35 -46 28z"/>
 <path fill="#549745" d="M2720 2835 c13 -14 26 -25 28 -25 3 0 -5 11 -18 25 -13 14 -26 25 -28 25 -3 0 5 -11 18 -25z"/>
 <path fill="#549745" d="M2825 2730 c10 -11 20 -20 23 -20 3 0 -3 9 -13 20 -10 11 -20 20 -23 20 -3 0 3 -9 13 -20z"/>
 <path fill="#549745" d="M2875 2663 c15 -24 30 -43 32 -43 7 0 -31 61 -46 73 -8 7 -2 -7 14 -30z"/>
 <path fill="#549745" d="M2932 2565 c12 -24 23 -43 26 -41 4 5 -36 86 -43 86 -3 0 5 -20 17 -45z"/>
 <path fill="#549745" d="M2977 2470 c3 -14 12 -41 20 -60 11 -30 12 -31 8 -6 -4 16 -13 43 -20 60 -11 23 -13 25 -8 6z"/>
 <path fill="#549745" d="M3010 2360 c0 -7 3 -10 7 -7 3 4 3 10 0 14 -4 3 -7 0 -7 -7z"/>
 <path fill="#549745" d="M3022 2320 c0 -14 2 -19 5 -12 2 6 2 18 0 25 -3 6 -5 1 -5 -13z"/>
 <path fill="#549745" d="M3031 2274 c0 -11 3 -14 6 -6 3 7 2 16 -1 19 -3 4 -6 -2 -5 -13z"/>
 <path fill="#549745" d="M3042 2215 c0 -16 2 -22 5 -12 2 9 2 23 0 30 -3 6 -5 -1 -5 -18z"/>
 <path fill="#549745" d="M3053 2135 c0 -22 2 -30 4 -17 2 12 2 30 0 40 -3 9 -5 -1 -4 -23z"/>
 <path fill="#549745" d="M2215 1023 c44 -8 116 -27 160 -42 44 -15 89 -31 100 -34 11 -4 -3 4 -32 18 -61 30 -231 75 -277 74 -17 -1 5 -8 49 -16z"/>
 <path fill="#549745" d="M2520 927 c0 -2 28 -21 62 -43 34 -21 98 -72 143 -113 75 -70 76 -71 20 -12 -68 71 -225 188 -225 168z"/>
 <path fill="#549745" d="M2846 624 c71 -105 125 -228 169 -384 13 -47 24 -78 24 -69 1 28 -46 179 -83 267 -35 85 -114 220 -141 242 -8 7 6 -19 31 -56z"/>
 </g>
<g id="layer108">
 <path fill="#1288a8" d="M546 3063 l-509 -3 7 -83 c10 -123 33 -221 77 -332 130 -327 388 -518 773 -574 l121 -18 -79 -7 c-243 -22 -452 -113 -610 -265 -190 -183 -287 -437 -287 -750 1 -486 277 -853 721 -959 25 -6 68 -17 95 -23 36 -9 346 -13 1128 -16 l1077 -4 -1 33 c-1 18 -5 47 -10 63 -5 20 -6 11 -2 -28 l5 -57 -498 2 -499 3 -3 498 -2 497 27 0 c51 0 267 40 333 61 304 98 509 314 601 629 24 83 49 223 49 278 l0 42 -502 0 -503 0 0 502 c0 324 4 506 10 510 9 7 -242 7 -1519 1z"/>
 <path fill="#1288a8" d="M2168 3053 c7 -3 16 -2 19 1 4 3 -2 6 -13 5 -11 0 -14 -3 -6 -6z"/>
 <path fill="#1288a8" d="M2243 3043 c4 -3 10 -3 14 0 3 4 0 7 -7 7 -7 0 -10 -3 -7 -7z"/>
 <path fill="#1288a8" d="M2293 3033 c4 -3 10 -3 14 0 3 4 0 7 -7 7 -7 0 -10 -3 -7 -7z"/>
 <path fill="#1288a8" d="M2665 2880 c3 -5 8 -10 11 -10 3 0 2 5 -1 10 -3 6 -8 10 -11 10 -3 0 -2 -4 1 -10z"/>
 <path fill="#1288a8" d="M2705 2850 c3 -5 8 -10 11 -10 3 0 2 5 -1 10 -3 6 -8 10 -11 10 -3 0 -2 -4 1 -10z"/>
 <path fill="#1288a8" d="M2835 2720 c3 -5 8 -10 11 -10 3 0 2 5 -1 10 -3 6 -8 10 -11 10 -3 0 -2 -4 1 -10z"/>
 <path fill="#1288a8" d="M2865 2680 c3 -5 8 -10 11 -10 3 0 2 5 -1 10 -3 6 -8 10 -11 10 -3 0 -2 -4 1 -10z"/>
 <path fill="#1288a8" d="M3020 2330 c0 -7 3 -10 7 -7 3 4 3 10 0 14 -4 3 -7 0 -7 -7z"/>
 <path fill="#1288a8" d="M3030 2280 c0 -7 3 -10 7 -7 3 4 3 10 0 14 -4 3 -7 0 -7 -7z"/>
 <path fill="#1288a8" d="M3040 2230 c0 -7 3 -10 7 -7 3 4 3 10 0 14 -4 3 -7 0 -7 -7z"/>
 <path fill="#1288a8" d="M3051 2154 c0 -11 3 -14 6 -6 3 7 2 16 -1 19 -3 4 -6 -2 -5 -13z"/>
 <path fill="#1288a8" d="M2215 1023 c44 -8 116 -27 160 -42 44 -15 89 -31 100 -34 11 -4 -3 4 -32 18 -61 30 -231 75 -277 74 -17 -1 5 -8 49 -16z"/>
 <path fill="#1288a8" d="M2520 927 c0 -2 28 -21 62 -43 34 -21 98 -72 143 -113 75 -70 76 -71 20 -12 -68 71 -225 188 -225 168z"/>
 <path fill="#1288a8" d="M2846 624 c71 -105 125 -228 169 -384 13 -47 24 -78 24 -69 1 28 -46 179 -83 267 -35 85 -114 220 -141 242 -8 7 6 -19 31 -56z"/>
 </g>
<g id="layer109">
 <path fill="#ca4649" d="M546 3063 l-509 -3 7 -83 c10 -123 33 -221 77 -332 130 -327 388 -518 773 -574 l121 -18 -79 -7 c-243 -22 -452 -113 -610 -265 -190 -183 -287 -437 -287 -750 1 -486 277 -853 721 -959 25 -6 68 -17 95 -23 36 -9 346 -13 1128 -16 l1077 -4 -1 33 c-1 18 -5 47 -10 63 -5 20 -6 11 -2 -28 l5 -57 -498 2 -499 3 -3 498 -2 497 27 0 c51 0 267 40 333 61 304 98 509 314 601 629 24 83 49 223 49 278 l0 42 -447 1 c-247 1 -682 5 -968 8 l-520 7 456 2 c406 2 458 4 463 18 8 20 8 928 0 948 -5 14 -61 16 -503 18 l-496 3 515 5 515 5 -510 0 c-280 0 -739 -1 -1019 -2z m547 -1000 c-7 -2 -21 -2 -30 0 -10 3 -4 5 12 5 17 0 24 -2 18 -5z"/>
 <path fill="#ca4649" d="M2168 3053 c7 -3 16 -2 19 1 4 3 -2 6 -13 5 -11 0 -14 -3 -6 -6z"/>
 <path fill="#ca4649" d="M2243 3043 c4 -3 10 -3 14 0 3 4 0 7 -7 7 -7 0 -10 -3 -7 -7z"/>
 <path fill="#ca4649" d="M2293 3033 c4 -3 10 -3 14 0 3 4 0 7 -7 7 -7 0 -10 -3 -7 -7z"/>
 <path fill="#ca4649" d="M2665 2880 c3 -5 8 -10 11 -10 3 0 2 5 -1 10 -3 6 -8 10 -11 10 -3 0 -2 -4 1 -10z"/>
 <path fill="#ca4649" d="M2705 2850 c3 -5 8 -10 11 -10 3 0 2 5 -1 10 -3 6 -8 10 -11 10 -3 0 -2 -4 1 -10z"/>
 <path fill="#ca4649" d="M2835 2720 c3 -5 8 -10 11 -10 3 0 2 5 -1 10 -3 6 -8 10 -11 10 -3 0 -2 -4 1 -10z"/>
 <path fill="#ca4649" d="M2865 2680 c3 -5 8 -10 11 -10 3 0 2 5 -1 10 -3 6 -8 10 -11 10 -3 0 -2 -4 1 -10z"/>
 <path fill="#ca4649" d="M3020 2330 c0 -7 3 -10 7 -7 3 4 3 10 0 14 -4 3 -7 0 -7 -7z"/>
 <path fill="#ca4649" d="M3030 2280 c0 -7 3 -10 7 -7 3 4 3 10 0 14 -4 3 -7 0 -7 -7z"/>
 <path fill="#ca4649" d="M3040 2230 c0 -7 3 -10 7 -7 3 4 3 10 0 14 -4 3 -7 0 -7 -7z"/>
 <path fill="#ca4649" d="M3051 2154 c0 -11 3 -14 6 -6 3 7 2 16 -1 19 -3 4 -6 -2 -5 -13z"/>
 <path fill="#ca4649" d="M2215 1023 c44 -8 116 -27 160 -42 44 -15 89 -31 100 -34 11 -4 -3 4 -32 18 -61 30 -231 75 -277 74 -17 -1 5 -8 49 -16z"/>
 <path fill="#ca4649" d="M2520 927 c0 -2 28 -21 62 -43 34 -21 98 -72 143 -113 75 -70 76 -71 20 -12 -68 71 -225 188 -225 168z"/>
 <path fill="#ca4649" d="M2846 624 c71 -105 125 -228 169 -384 13 -47 24 -78 24 -69 1 28 -46 179 -83 267 -35 85 -114 220 -141 242 -8 7 6 -19 31 -56z"/>
 </g>
<g id="layer110">
 <path fill="#0194d9" d="M546 3063 l-509 -3 7 -83 c10 -123 33 -221 77 -332 130 -327 388 -518 773 -574 l121 -18 -79 -7 c-243 -22 -452 -113 -610 -265 -190 -183 -287 -437 -287 -750 1 -486 277 -853 721 -959 25 -6 68 -17 95 -23 37 -9 337 -12 1125 -13 591 -1 849 0 572 1 l-502 3 2 503 3 502 21 -3 c34 -5 262 36 334 59 304 98 509 314 601 629 24 83 49 223 49 278 l0 42 -447 1 c-247 1 -682 5 -968 8 l-520 7 456 2 c406 2 458 4 463 18 8 20 8 928 0 948 -5 14 -61 16 -503 18 l-496 3 515 5 515 5 -510 0 c-280 0 -739 -1 -1019 -2z m547 -1000 c-7 -2 -21 -2 -30 0 -10 3 -4 5 12 5 17 0 24 -2 18 -5z"/>
 <path fill="#0194d9" d="M2168 3053 c7 -3 16 -2 19 1 4 3 -2 6 -13 5 -11 0 -14 -3 -6 -6z"/>
 <path fill="#0194d9" d="M2243 3043 c4 -3 10 -3 14 0 3 4 0 7 -7 7 -7 0 -10 -3 -7 -7z"/>
 <path fill="#0194d9" d="M2293 3033 c4 -3 10 -3 14 0 3 4 0 7 -7 7 -7 0 -10 -3 -7 -7z"/>
 <path fill="#0194d9" d="M2665 2880 c3 -5 8 -10 11 -10 3 0 2 5 -1 10 -3 6 -8 10 -11 10 -3 0 -2 -4 1 -10z"/>
 <path fill="#0194d9" d="M2705 2850 c3 -5 8 -10 11 -10 3 0 2 5 -1 10 -3 6 -8 10 -11 10 -3 0 -2 -4 1 -10z"/>
 <path fill="#0194d9" d="M2835 2720 c3 -5 8 -10 11 -10 3 0 2 5 -1 10 -3 6 -8 10 -11 10 -3 0 -2 -4 1 -10z"/>
 <path fill="#0194d9" d="M2865 2680 c3 -5 8 -10 11 -10 3 0 2 5 -1 10 -3 6 -8 10 -11 10 -3 0 -2 -4 1 -10z"/>
 <path fill="#0194d9" d="M3020 2330 c0 -7 3 -10 7 -7 3 4 3 10 0 14 -4 3 -7 0 -7 -7z"/>
 <path fill="#0194d9" d="M3030 2280 c0 -7 3 -10 7 -7 3 4 3 10 0 14 -4 3 -7 0 -7 -7z"/>
 <path fill="#0194d9" d="M3040 2230 c0 -7 3 -10 7 -7 3 4 3 10 0 14 -4 3 -7 0 -7 -7z"/>
 <path fill="#0194d9" d="M3051 2154 c0 -11 3 -14 6 -6 3 7 2 16 -1 19 -3 4 -6 -2 -5 -13z"/>
 <path fill="#0194d9" d="M2178 1033 c6 -2 18 -2 25 0 6 3 1 5 -13 5 -14 0 -19 -2 -12 -5z"/>
 <path fill="#0194d9" d="M2238 1023 c7 -3 16 -2 19 1 4 3 -2 6 -13 5 -11 0 -14 -3 -6 -6z"/>
 <path fill="#0194d9" d="M2283 1013 c4 -3 10 -3 14 0 3 4 0 7 -7 7 -7 0 -10 -3 -7 -7z"/>
 <path fill="#0194d9" d="M2323 1003 c4 -3 10 -3 14 0 3 4 0 7 -7 7 -7 0 -10 -3 -7 -7z"/>
 <path fill="#0194d9" d="M2353 993 c4 -3 10 -3 14 0 3 4 0 7 -7 7 -7 0 -10 -3 -7 -7z"/>
 <path fill="#0194d9" d="M2383 983 c4 -3 10 -3 14 0 3 4 0 7 -7 7 -7 0 -10 -3 -7 -7z"/>
 <path fill="#0194d9" d="M2413 973 c4 -3 10 -3 14 0 3 4 0 7 -7 7 -7 0 -10 -3 -7 -7z"/>
 <path fill="#0194d9" d="M2625 860 c3 -5 8 -10 11 -10 3 0 2 5 -1 10 -3 6 -8 10 -11 10 -3 0 -2 -4 1 -10z"/>
 <path fill="#0194d9" d="M2660 836 c0 -2 8 -10 18 -17 15 -13 16 -12 3 4 -13 16 -21 21 -21 13z"/>
 <path fill="#0194d9" d="M2770 726 c0 -2 8 -10 18 -17 15 -13 16 -12 3 4 -13 16 -21 21 -21 13z"/>
 <path fill="#0194d9" d="M2825 660 c3 -5 8 -10 11 -10 3 0 2 5 -1 10 -3 6 -8 10 -11 10 -3 0 -2 -4 1 -10z"/>
 <path fill="#0194d9" d="M2845 630 c3 -5 8 -10 11 -10 3 0 2 5 -1 10 -3 6 -8 10 -11 10 -3 0 -2 -4 1 -10z"/>
 <path fill="#0194d9" d="M2865 600 c3 -5 8 -10 11 -10 3 0 2 5 -1 10 -3 6 -8 10 -11 10 -3 0 -2 -4 1 -10z"/>
 <path fill="#0194d9" d="M2895 550 c3 -5 8 -10 11 -10 3 0 2 5 -1 10 -3 6 -8 10 -11 10 -3 0 -2 -4 1 -10z"/>
 <path fill="#0194d9" d="M2940 460 c0 -7 3 -10 7 -7 3 4 3 10 0 14 -4 3 -7 0 -7 -7z"/>
 <path fill="#0194d9" d="M2980 360 c0 -7 3 -10 7 -7 3 4 3 10 0 14 -4 3 -7 0 -7 -7z"/>
 <path fill="#0194d9" d="M2990 330 c0 -7 3 -10 7 -7 3 4 3 10 0 14 -4 3 -7 0 -7 -7z"/>
 <path fill="#0194d9" d="M3000 300 c0 -7 3 -10 7 -7 3 4 3 10 0 14 -4 3 -7 0 -7 -7z"/>
 <path fill="#0194d9" d="M3010 270 c0 -7 3 -10 7 -7 3 4 3 10 0 14 -4 3 -7 0 -7 -7z"/>
 <path fill="#0194d9" d="M3020 230 c0 -7 3 -10 7 -7 3 4 3 10 0 14 -4 3 -7 0 -7 -7z"/>
 <path fill="#0194d9" d="M3030 190 c0 -7 3 -10 7 -7 3 4 3 10 0 14 -4 3 -7 0 -7 -7z"/>
 <path fill="#0194d9" d="M3040 140 c0 -7 3 -10 7 -7 3 4 3 10 0 14 -4 3 -7 0 -7 -7z"/>
 <path fill="#0194d9" d="M3050 90 c0 -7 3 -10 7 -7 3 4 3 10 0 14 -4 3 -7 0 -7 -7z"/>
 </g>
<g id="layer111">
 <path fill="#f17625" d="M546 3063 l-509 -3 7 -83 c10 -123 33 -221 77 -332 130 -327 388 -518 773 -574 l121 -18 -79 -7 c-243 -22 -452 -113 -610 -265 -190 -183 -287 -437 -287 -750 1 -486 277 -853 721 -959 25 -6 68 -17 95 -23 37 -9 337 -12 1125 -13 591 -1 849 0 572 1 l-502 3 2 503 3 502 21 -3 c34 -5 262 36 334 59 304 98 509 314 601 629 24 82 49 223 49 276 l0 42 -1005 7 -1005 7 0 499 0 499 513 3 512 2 -510 0 c-280 0 -739 -1 -1019 -2z"/>
 <path fill="#f17625" d="M2168 3053 c7 -3 16 -2 19 1 4 3 -2 6 -13 5 -11 0 -14 -3 -6 -6z"/>
 <path fill="#f17625" d="M2243 3043 c4 -3 10 -3 14 0 3 4 0 7 -7 7 -7 0 -10 -3 -7 -7z"/>
 <path fill="#f17625" d="M2293 3033 c4 -3 10 -3 14 0 3 4 0 7 -7 7 -7 0 -10 -3 -7 -7z"/>
 <path fill="#f17625" d="M2665 2880 c3 -5 8 -10 11 -10 3 0 2 5 -1 10 -3 6 -8 10 -11 10 -3 0 -2 -4 1 -10z"/>
 <path fill="#f17625" d="M2705 2850 c3 -5 8 -10 11 -10 3 0 2 5 -1 10 -3 6 -8 10 -11 10 -3 0 -2 -4 1 -10z"/>
 <path fill="#f17625" d="M2835 2720 c3 -5 8 -10 11 -10 3 0 2 5 -1 10 -3 6 -8 10 -11 10 -3 0 -2 -4 1 -10z"/>
 <path fill="#f17625" d="M2865 2680 c3 -5 8 -10 11 -10 3 0 2 5 -1 10 -3 6 -8 10 -11 10 -3 0 -2 -4 1 -10z"/>
 <path fill="#f17625" d="M3020 2330 c0 -7 3 -10 7 -7 3 4 3 10 0 14 -4 3 -7 0 -7 -7z"/>
 <path fill="#f17625" d="M3030 2280 c0 -7 3 -10 7 -7 3 4 3 10 0 14 -4 3 -7 0 -7 -7z"/>
 <path fill="#f17625" d="M3040 2230 c0 -7 3 -10 7 -7 3 4 3 10 0 14 -4 3 -7 0 -7 -7z"/>
 <path fill="#f17625" d="M3051 2154 c0 -11 3 -14 6 -6 3 7 2 16 -1 19 -3 4 -6 -2 -5 -13z"/>
 <path fill="#f17625" d="M2178 1033 c6 -2 18 -2 25 0 6 3 1 5 -13 5 -14 0 -19 -2 -12 -5z"/>
 <path fill="#f17625" d="M2238 1023 c7 -3 16 -2 19 1 4 3 -2 6 -13 5 -11 0 -14 -3 -6 -6z"/>
 <path fill="#f17625" d="M2283 1013 c4 -3 10 -3 14 0 3 4 0 7 -7 7 -7 0 -10 -3 -7 -7z"/>
 <path fill="#f17625" d="M2323 1003 c4 -3 10 -3 14 0 3 4 0 7 -7 7 -7 0 -10 -3 -7 -7z"/>
 <path fill="#f17625" d="M2353 993 c4 -3 10 -3 14 0 3 4 0 7 -7 7 -7 0 -10 -3 -7 -7z"/>
 <path fill="#f17625" d="M2383 983 c4 -3 10 -3 14 0 3 4 0 7 -7 7 -7 0 -10 -3 -7 -7z"/>
 <path fill="#f17625" d="M2413 973 c4 -3 10 -3 14 0 3 4 0 7 -7 7 -7 0 -10 -3 -7 -7z"/>
 <path fill="#f17625" d="M2625 860 c3 -5 8 -10 11 -10 3 0 2 5 -1 10 -3 6 -8 10 -11 10 -3 0 -2 -4 1 -10z"/>
 <path fill="#f17625" d="M2660 836 c0 -2 8 -10 18 -17 15 -13 16 -12 3 4 -13 16 -21 21 -21 13z"/>
 <path fill="#f17625" d="M2770 726 c0 -2 8 -10 18 -17 15 -13 16 -12 3 4 -13 16 -21 21 -21 13z"/>
 <path fill="#f17625" d="M2825 660 c3 -5 8 -10 11 -10 3 0 2 5 -1 10 -3 6 -8 10 -11 10 -3 0 -2 -4 1 -10z"/>
 <path fill="#f17625" d="M2845 630 c3 -5 8 -10 11 -10 3 0 2 5 -1 10 -3 6 -8 10 -11 10 -3 0 -2 -4 1 -10z"/>
 <path fill="#f17625" d="M2865 600 c3 -5 8 -10 11 -10 3 0 2 5 -1 10 -3 6 -8 10 -11 10 -3 0 -2 -4 1 -10z"/>
 <path fill="#f17625" d="M2895 550 c3 -5 8 -10 11 -10 3 0 2 5 -1 10 -3 6 -8 10 -11 10 -3 0 -2 -4 1 -10z"/>
 <path fill="#f17625" d="M2940 460 c0 -7 3 -10 7 -7 3 4 3 10 0 14 -4 3 -7 0 -7 -7z"/>
 <path fill="#f17625" d="M2980 360 c0 -7 3 -10 7 -7 3 4 3 10 0 14 -4 3 -7 0 -7 -7z"/>
 <path fill="#f17625" d="M2990 330 c0 -7 3 -10 7 -7 3 4 3 10 0 14 -4 3 -7 0 -7 -7z"/>
 <path fill="#f17625" d="M3000 300 c0 -7 3 -10 7 -7 3 4 3 10 0 14 -4 3 -7 0 -7 -7z"/>
 <path fill="#f17625" d="M3010 270 c0 -7 3 -10 7 -7 3 4 3 10 0 14 -4 3 -7 0 -7 -7z"/>
 <path fill="#f17625" d="M3020 230 c0 -7 3 -10 7 -7 3 4 3 10 0 14 -4 3 -7 0 -7 -7z"/>
 <path fill="#f17625" d="M3030 190 c0 -7 3 -10 7 -7 3 4 3 10 0 14 -4 3 -7 0 -7 -7z"/>
 <path fill="#f17625" d="M3040 140 c0 -7 3 -10 7 -7 3 4 3 10 0 14 -4 3 -7 0 -7 -7z"/>
 <path fill="#f17625" d="M3050 90 c0 -7 3 -10 7 -7 3 4 3 10 0 14 -4 3 -7 0 -7 -7z"/>
 </g>
<g id="layer112">
 <path fill="#f6821f" d="M546 3063 l-509 -3 7 -83 c10 -123 33 -221 77 -332 130 -327 388 -518 773 -574 l121 -18 -79 -7 c-243 -22 -452 -113 -610 -265 -190 -183 -287 -437 -287 -750 1 -392 179 -709 491 -874 90 -47 158 -70 325 -108 33 -7 228 -12 570 -13 l520 -2 -450 5 -450 6 500 3 500 2 -2 487 -2 488 -493 5 -493 5 500 5 c275 2 511 3 525 3 46 -2 264 37 330 58 304 98 509 314 601 629 24 82 49 223 49 276 l0 42 -1005 7 -1005 7 0 499 0 499 513 3 512 2 -510 0 c-280 0 -739 -1 -1019 -2z"/>
 <path fill="#f6821f" d="M2168 3053 c7 -3 16 -2 19 1 4 3 -2 6 -13 5 -11 0 -14 -3 -6 -6z"/>
 <path fill="#f6821f" d="M2243 3043 c4 -3 10 -3 14 0 3 4 0 7 -7 7 -7 0 -10 -3 -7 -7z"/>
 <path fill="#f6821f" d="M2293 3033 c4 -3 10 -3 14 0 3 4 0 7 -7 7 -7 0 -10 -3 -7 -7z"/>
 <path fill="#f6821f" d="M2665 2880 c3 -5 8 -10 11 -10 3 0 2 5 -1 10 -3 6 -8 10 -11 10 -3 0 -2 -4 1 -10z"/>
 <path fill="#f6821f" d="M2705 2850 c3 -5 8 -10 11 -10 3 0 2 5 -1 10 -3 6 -8 10 -11 10 -3 0 -2 -4 1 -10z"/>
 <path fill="#f6821f" d="M2835 2720 c3 -5 8 -10 11 -10 3 0 2 5 -1 10 -3 6 -8 10 -11 10 -3 0 -2 -4 1 -10z"/>
 <path fill="#f6821f" d="M2865 2680 c3 -5 8 -10 11 -10 3 0 2 5 -1 10 -3 6 -8 10 -11 10 -3 0 -2 -4 1 -10z"/>
 <path fill="#f6821f" d="M3020 2330 c0 -7 3 -10 7 -7 3 4 3 10 0 14 -4 3 -7 0 -7 -7z"/>
 <path fill="#f6821f" d="M3030 2280 c0 -7 3 -10 7 -7 3 4 3 10 0 14 -4 3 -7 0 -7 -7z"/>
 <path fill="#f6821f" d="M3040 2230 c0 -7 3 -10 7 -7 3 4 3 10 0 14 -4 3 -7 0 -7 -7z"/>
 <path fill="#f6821f" d="M3051 2154 c0 -11 3 -14 6 -6 3 7 2 16 -1 19 -3 4 -6 -2 -5 -13z"/>
 <path fill="#f6821f" d="M2178 1033 c6 -2 18 -2 25 0 6 3 1 5 -13 5 -14 0 -19 -2 -12 -5z"/>
 <path fill="#f6821f" d="M2238 1023 c7 -3 16 -2 19 1 4 3 -2 6 -13 5 -11 0 -14 -3 -6 -6z"/>
 <path fill="#f6821f" d="M2283 1013 c4 -3 10 -3 14 0 3 4 0 7 -7 7 -7 0 -10 -3 -7 -7z"/>
 <path fill="#f6821f" d="M2323 1003 c4 -3 10 -3 14 0 3 4 0 7 -7 7 -7 0 -10 -3 -7 -7z"/>
 <path fill="#f6821f" d="M2353 993 c4 -3 10 -3 14 0 3 4 0 7 -7 7 -7 0 -10 -3 -7 -7z"/>
 <path fill="#f6821f" d="M2383 983 c4 -3 10 -3 14 0 3 4 0 7 -7 7 -7 0 -10 -3 -7 -7z"/>
 <path fill="#f6821f" d="M2413 973 c4 -3 10 -3 14 0 3 4 0 7 -7 7 -7 0 -10 -3 -7 -7z"/>
 <path fill="#f6821f" d="M2625 860 c3 -5 8 -10 11 -10 3 0 2 5 -1 10 -3 6 -8 10 -11 10 -3 0 -2 -4 1 -10z"/>
 <path fill="#f6821f" d="M2660 836 c0 -2 8 -10 18 -17 15 -13 16 -12 3 4 -13 16 -21 21 -21 13z"/>
 <path fill="#f6821f" d="M2770 726 c0 -2 8 -10 18 -17 15 -13 16 -12 3 4 -13 16 -21 21 -21 13z"/>
 <path fill="#f6821f" d="M2825 660 c3 -5 8 -10 11 -10 3 0 2 5 -1 10 -3 6 -8 10 -11 10 -3 0 -2 -4 1 -10z"/>
 <path fill="#f6821f" d="M2845 630 c3 -5 8 -10 11 -10 3 0 2 5 -1 10 -3 6 -8 10 -11 10 -3 0 -2 -4 1 -10z"/>
 <path fill="#f6821f" d="M2865 600 c3 -5 8 -10 11 -10 3 0 2 5 -1 10 -3 6 -8 10 -11 10 -3 0 -2 -4 1 -10z"/>
 <path fill="#f6821f" d="M2895 550 c3 -5 8 -10 11 -10 3 0 2 5 -1 10 -3 6 -8 10 -11 10 -3 0 -2 -4 1 -10z"/>
 <path fill="#f6821f" d="M2940 460 c0 -7 3 -10 7 -7 3 4 3 10 0 14 -4 3 -7 0 -7 -7z"/>
 <path fill="#f6821f" d="M2980 360 c0 -7 3 -10 7 -7 3 4 3 10 0 14 -4 3 -7 0 -7 -7z"/>
 <path fill="#f6821f" d="M2990 330 c0 -7 3 -10 7 -7 3 4 3 10 0 14 -4 3 -7 0 -7 -7z"/>
 <path fill="#f6821f" d="M3000 300 c0 -7 3 -10 7 -7 3 4 3 10 0 14 -4 3 -7 0 -7 -7z"/>
 <path fill="#f6821f" d="M3010 270 c0 -7 3 -10 7 -7 3 4 3 10 0 14 -4 3 -7 0 -7 -7z"/>
 <path fill="#f6821f" d="M3020 230 c0 -7 3 -10 7 -7 3 4 3 10 0 14 -4 3 -7 0 -7 -7z"/>
 <path fill="#f6821f" d="M3030 190 c0 -7 3 -10 7 -7 3 4 3 10 0 14 -4 3 -7 0 -7 -7z"/>
 <path fill="#f6821f" d="M3040 140 c0 -7 3 -10 7 -7 3 4 3 10 0 14 -4 3 -7 0 -7 -7z"/>
 <path fill="#f6821f" d="M3050 90 c0 -7 3 -10 7 -7 3 4 3 10 0 14 -4 3 -7 0 -7 -7z"/>
 <path fill="#f6821f" d="M1983 33 c4 -3 10 -3 14 0 3 4 0 7 -7 7 -7 0 -10 -3 -7 -7z"/>
 <path fill="#f6821f" d="M2013 33 c4 -3 10 -3 14 0 3 4 0 7 -7 7 -7 0 -10 -3 -7 -7z"/>
 <path fill="#f6821f" d="M2303 33 c142 -2 372 -2 510 0 139 1 23 2 -258 2 -280 0 -394 -1 -252 -2z"/>
 </g>
<g id="layer113">
 <path fill="#a5cd38" d="M546 3063 l-509 -3 7 -83 c10 -123 33 -221 77 -332 130 -327 388 -518 773 -574 l121 -18 -79 -7 c-243 -22 -452 -113 -610 -265 -190 -183 -287 -437 -287 -750 1 -392 179 -709 491 -874 90 -47 158 -70 325 -108 33 -7 228 -12 570 -13 322 -1 350 -1 73 1 l-448 3 0 500 0 500 503 2 c276 1 513 1 527 1 46 -2 264 37 330 58 304 98 509 314 601 629 24 82 49 223 49 276 l0 42 -1005 7 -1005 7 0 499 0 499 513 3 512 2 -510 0 c-280 0 -739 -1 -1019 -2z"/>
 <path fill="#a5cd38" d="M2168 3053 c7 -3 16 -2 19 1 4 3 -2 6 -13 5 -11 0 -14 -3 -6 -6z"/>
 <path fill="#a5cd38" d="M2243 3043 c4 -3 10 -3 14 0 3 4 0 7 -7 7 -7 0 -10 -3 -7 -7z"/>
 <path fill="#a5cd38" d="M2293 3033 c4 -3 10 -3 14 0 3 4 0 7 -7 7 -7 0 -10 -3 -7 -7z"/>
 <path fill="#a5cd38" d="M2665 2880 c3 -5 8 -10 11 -10 3 0 2 5 -1 10 -3 6 -8 10 -11 10 -3 0 -2 -4 1 -10z"/>
 <path fill="#a5cd38" d="M2705 2850 c3 -5 8 -10 11 -10 3 0 2 5 -1 10 -3 6 -8 10 -11 10 -3 0 -2 -4 1 -10z"/>
 <path fill="#a5cd38" d="M2835 2720 c3 -5 8 -10 11 -10 3 0 2 5 -1 10 -3 6 -8 10 -11 10 -3 0 -2 -4 1 -10z"/>
 <path fill="#a5cd38" d="M2865 2680 c3 -5 8 -10 11 -10 3 0 2 5 -1 10 -3 6 -8 10 -11 10 -3 0 -2 -4 1 -10z"/>
 <path fill="#a5cd38" d="M3020 2330 c0 -7 3 -10 7 -7 3 4 3 10 0 14 -4 3 -7 0 -7 -7z"/>
 <path fill="#a5cd38" d="M3030 2280 c0 -7 3 -10 7 -7 3 4 3 10 0 14 -4 3 -7 0 -7 -7z"/>
 <path fill="#a5cd38" d="M3040 2230 c0 -7 3 -10 7 -7 3 4 3 10 0 14 -4 3 -7 0 -7 -7z"/>
 <path fill="#a5cd38" d="M3051 2154 c0 -11 3 -14 6 -6 3 7 2 16 -1 19 -3 4 -6 -2 -5 -13z"/>
 <path fill="#a5cd38" d="M2178 1033 c6 -2 18 -2 25 0 6 3 1 5 -13 5 -14 0 -19 -2 -12 -5z"/>
 <path fill="#a5cd38" d="M2238 1023 c7 -3 16 -2 19 1 4 3 -2 6 -13 5 -11 0 -14 -3 -6 -6z"/>
 <path fill="#a5cd38" d="M2283 1013 c4 -3 10 -3 14 0 3 4 0 7 -7 7 -7 0 -10 -3 -7 -7z"/>
 <path fill="#a5cd38" d="M2323 1003 c4 -3 10 -3 14 0 3 4 0 7 -7 7 -7 0 -10 -3 -7 -7z"/>
 <path fill="#a5cd38" d="M2353 993 c4 -3 10 -3 14 0 3 4 0 7 -7 7 -7 0 -10 -3 -7 -7z"/>
 <path fill="#a5cd38" d="M2383 983 c4 -3 10 -3 14 0 3 4 0 7 -7 7 -7 0 -10 -3 -7 -7z"/>
 <path fill="#a5cd38" d="M2413 973 c4 -3 10 -3 14 0 3 4 0 7 -7 7 -7 0 -10 -3 -7 -7z"/>
 <path fill="#a5cd38" d="M2625 860 c3 -5 8 -10 11 -10 3 0 2 5 -1 10 -3 6 -8 10 -11 10 -3 0 -2 -4 1 -10z"/>
 <path fill="#a5cd38" d="M2660 836 c0 -2 8 -10 18 -17 15 -13 16 -12 3 4 -13 16 -21 21 -21 13z"/>
 <path fill="#a5cd38" d="M2770 726 c0 -2 8 -10 18 -17 15 -13 16 -12 3 4 -13 16 -21 21 -21 13z"/>
 <path fill="#a5cd38" d="M2825 660 c3 -5 8 -10 11 -10 3 0 2 5 -1 10 -3 6 -8 10 -11 10 -3 0 -2 -4 1 -10z"/>
 <path fill="#a5cd38" d="M2845 630 c3 -5 8 -10 11 -10 3 0 2 5 -1 10 -3 6 -8 10 -11 10 -3 0 -2 -4 1 -10z"/>
 <path fill="#a5cd38" d="M2865 600 c3 -5 8 -10 11 -10 3 0 2 5 -1 10 -3 6 -8 10 -11 10 -3 0 -2 -4 1 -10z"/>
 <path fill="#a5cd38" d="M2895 550 c3 -5 8 -10 11 -10 3 0 2 5 -1 10 -3 6 -8 10 -11 10 -3 0 -2 -4 1 -10z"/>
 <path fill="#a5cd38" d="M2940 460 c0 -7 3 -10 7 -7 3 4 3 10 0 14 -4 3 -7 0 -7 -7z"/>
 <path fill="#a5cd38" d="M2980 360 c0 -7 3 -10 7 -7 3 4 3 10 0 14 -4 3 -7 0 -7 -7z"/>
 <path fill="#a5cd38" d="M2990 330 c0 -7 3 -10 7 -7 3 4 3 10 0 14 -4 3 -7 0 -7 -7z"/>
 <path fill="#a5cd38" d="M3000 300 c0 -7 3 -10 7 -7 3 4 3 10 0 14 -4 3 -7 0 -7 -7z"/>
 <path fill="#a5cd38" d="M3010 270 c0 -7 3 -10 7 -7 3 4 3 10 0 14 -4 3 -7 0 -7 -7z"/>
 <path fill="#a5cd38" d="M3020 230 c0 -7 3 -10 7 -7 3 4 3 10 0 14 -4 3 -7 0 -7 -7z"/>
 <path fill="#a5cd38" d="M3030 190 c0 -7 3 -10 7 -7 3 4 3 10 0 14 -4 3 -7 0 -7 -7z"/>
 <path fill="#a5cd38" d="M3040 140 c0 -7 3 -10 7 -7 3 4 3 10 0 14 -4 3 -7 0 -7 -7z"/>
 <path fill="#a5cd38" d="M3050 90 c0 -7 3 -10 7 -7 3 4 3 10 0 14 -4 3 -7 0 -7 -7z"/>
 <path fill="#a5cd38" d="M1983 33 c4 -3 10 -3 14 0 3 4 0 7 -7 7 -7 0 -10 -3 -7 -7z"/>
 <path fill="#a5cd38" d="M2013 33 c4 -3 10 -3 14 0 3 4 0 7 -7 7 -7 0 -10 -3 -7 -7z"/>
 <path fill="#a5cd38" d="M2303 33 c142 -2 372 -2 510 0 139 1 23 2 -258 2 -280 0 -394 -1 -252 -2z"/>
 </g>
<g id="layer114">
 <path fill="#f09d20" d="M546 3063 l-509 -3 7 -83 c10 -123 33 -221 77 -332 130 -327 388 -518 773 -574 l121 -18 -79 -7 c-243 -22 -452 -113 -610 -265 -190 -183 -287 -437 -287 -750 1 -392 179 -709 491 -874 90 -47 158 -70 325 -108 33 -7 228 -12 570 -13 322 -1 350 -1 73 1 l-448 3 0 500 0 500 503 2 c276 1 513 1 527 1 46 -2 264 37 330 58 304 98 509 314 601 629 24 82 49 223 49 276 l0 42 -1005 7 -1005 7 0 499 0 499 513 3 512 2 -510 0 c-280 0 -739 -1 -1019 -2z m2497 -1073 c-3 -76 -14 -152 -24 -171 -5 -10 -9 -27 -9 -39 0 -11 -9 -46 -21 -78 -11 -31 -21 -63 -22 -69 0 -7 -4 -13 -9 -13 -4 0 -8 -8 -8 -19 0 -10 -11 -35 -25 -55 -14 -20 -25 -41 -25 -45 0 -5 -7 -14 -15 -21 -8 -7 -13 -16 -10 -20 3 -4 -6 -15 -20 -24 -14 -9 -25 -26 -25 -37 0 -11 -4 -17 -10 -14 -5 3 -10 0 -10 -8 0 -12 -87 -98 -95 -94 -2 1 -19 -13 -39 -31 -20 -18 -36 -29 -36 -25 0 5 -4 3 -8 -2 -4 -6 -18 -16 -32 -23 -14 -7 -44 -23 -67 -36 -51 -29 -128 -56 -160 -56 -13 0 -23 -4 -23 -10 0 -5 -25 -10 -56 -10 -34 0 -53 -4 -49 -10 4 -6 -18 -10 -57 -11 -35 -1 -75 -2 -91 -3 l-27 -1 0 480 c-1 264 -1 483 0 488 0 4 219 6 488 5 l487 -3 -2 -45z"/>
 <path fill="#f09d20" d="M2168 3053 c7 -3 16 -2 19 1 4 3 -2 6 -13 5 -11 0 -14 -3 -6 -6z"/>
 <path fill="#f09d20" d="M2243 3043 c4 -3 10 -3 14 0 3 4 0 7 -7 7 -7 0 -10 -3 -7 -7z"/>
 <path fill="#f09d20" d="M2293 3033 c4 -3 10 -3 14 0 3 4 0 7 -7 7 -7 0 -10 -3 -7 -7z"/>
 <path fill="#f09d20" d="M2665 2880 c3 -5 8 -10 11 -10 3 0 2 5 -1 10 -3 6 -8 10 -11 10 -3 0 -2 -4 1 -10z"/>
 <path fill="#f09d20" d="M2705 2850 c3 -5 8 -10 11 -10 3 0 2 5 -1 10 -3 6 -8 10 -11 10 -3 0 -2 -4 1 -10z"/>
 <path fill="#f09d20" d="M2835 2720 c3 -5 8 -10 11 -10 3 0 2 5 -1 10 -3 6 -8 10 -11 10 -3 0 -2 -4 1 -10z"/>
 <path fill="#f09d20" d="M2865 2680 c3 -5 8 -10 11 -10 3 0 2 5 -1 10 -3 6 -8 10 -11 10 -3 0 -2 -4 1 -10z"/>
 <path fill="#f09d20" d="M3020 2330 c0 -7 3 -10 7 -7 3 4 3 10 0 14 -4 3 -7 0 -7 -7z"/>
 <path fill="#f09d20" d="M3030 2280 c0 -7 3 -10 7 -7 3 4 3 10 0 14 -4 3 -7 0 -7 -7z"/>
 <path fill="#f09d20" d="M3040 2230 c0 -7 3 -10 7 -7 3 4 3 10 0 14 -4 3 -7 0 -7 -7z"/>
 <path fill="#f09d20" d="M3051 2154 c0 -11 3 -14 6 -6 3 7 2 16 -1 19 -3 4 -6 -2 -5 -13z"/>
 <path fill="#f09d20" d="M2178 1033 c6 -2 18 -2 25 0 6 3 1 5 -13 5 -14 0 -19 -2 -12 -5z"/>
 <path fill="#f09d20" d="M2238 1023 c7 -3 16 -2 19 1 4 3 -2 6 -13 5 -11 0 -14 -3 -6 -6z"/>
 <path fill="#f09d20" d="M2283 1013 c4 -3 10 -3 14 0 3 4 0 7 -7 7 -7 0 -10 -3 -7 -7z"/>
 <path fill="#f09d20" d="M2323 1003 c4 -3 10 -3 14 0 3 4 0 7 -7 7 -7 0 -10 -3 -7 -7z"/>
 <path fill="#f09d20" d="M2353 993 c4 -3 10 -3 14 0 3 4 0 7 -7 7 -7 0 -10 -3 -7 -7z"/>
 <path fill="#f09d20" d="M2383 983 c4 -3 10 -3 14 0 3 4 0 7 -7 7 -7 0 -10 -3 -7 -7z"/>
 <path fill="#f09d20" d="M2413 973 c4 -3 10 -3 14 0 3 4 0 7 -7 7 -7 0 -10 -3 -7 -7z"/>
 <path fill="#f09d20" d="M2625 860 c3 -5 8 -10 11 -10 3 0 2 5 -1 10 -3 6 -8 10 -11 10 -3 0 -2 -4 1 -10z"/>
 <path fill="#f09d20" d="M2660 836 c0 -2 8 -10 18 -17 15 -13 16 -12 3 4 -13 16 -21 21 -21 13z"/>
 <path fill="#f09d20" d="M2770 726 c0 -2 8 -10 18 -17 15 -13 16 -12 3 4 -13 16 -21 21 -21 13z"/>
 <path fill="#f09d20" d="M2825 660 c3 -5 8 -10 11 -10 3 0 2 5 -1 10 -3 6 -8 10 -11 10 -3 0 -2 -4 1 -10z"/>
 <path fill="#f09d20" d="M2845 630 c3 -5 8 -10 11 -10 3 0 2 5 -1 10 -3 6 -8 10 -11 10 -3 0 -2 -4 1 -10z"/>
 <path fill="#f09d20" d="M2865 600 c3 -5 8 -10 11 -10 3 0 2 5 -1 10 -3 6 -8 10 -11 10 -3 0 -2 -4 1 -10z"/>
 <path fill="#f09d20" d="M2895 550 c3 -5 8 -10 11 -10 3 0 2 5 -1 10 -3 6 -8 10 -11 10 -3 0 -2 -4 1 -10z"/>
 <path fill="#f09d20" d="M2940 460 c0 -7 3 -10 7 -7 3 4 3 10 0 14 -4 3 -7 0 -7 -7z"/>
 <path fill="#f09d20" d="M2980 360 c0 -7 3 -10 7 -7 3 4 3 10 0 14 -4 3 -7 0 -7 -7z"/>
 <path fill="#f09d20" d="M2990 330 c0 -7 3 -10 7 -7 3 4 3 10 0 14 -4 3 -7 0 -7 -7z"/>
 <path fill="#f09d20" d="M3000 300 c0 -7 3 -10 7 -7 3 4 3 10 0 14 -4 3 -7 0 -7 -7z"/>
 <path fill="#f09d20" d="M3010 270 c0 -7 3 -10 7 -7 3 4 3 10 0 14 -4 3 -7 0 -7 -7z"/>
 <path fill="#f09d20" d="M3020 230 c0 -7 3 -10 7 -7 3 4 3 10 0 14 -4 3 -7 0 -7 -7z"/>
 <path fill="#f09d20" d="M3030 190 c0 -7 3 -10 7 -7 3 4 3 10 0 14 -4 3 -7 0 -7 -7z"/>
 <path fill="#f09d20" d="M3040 140 c0 -7 3 -10 7 -7 3 4 3 10 0 14 -4 3 -7 0 -7 -7z"/>
 <path fill="#f09d20" d="M3050 90 c0 -7 3 -10 7 -7 3 4 3 10 0 14 -4 3 -7 0 -7 -7z"/>
 <path fill="#f09d20" d="M1983 33 c4 -3 10 -3 14 0 3 4 0 7 -7 7 -7 0 -10 -3 -7 -7z"/>
 <path fill="#f09d20" d="M2013 33 c4 -3 10 -3 14 0 3 4 0 7 -7 7 -7 0 -10 -3 -7 -7z"/>
 <path fill="#f09d20" d="M2303 33 c142 -2 372 -2 510 0 139 1 23 2 -258 2 -280 0 -394 -1 -252 -2z"/>
 </g>
<g id="layer115">
 <path fill="#a6cb50" d="M546 3063 l-509 -3 7 -83 c10 -123 33 -221 77 -332 130 -327 388 -518 773 -574 l121 -18 -79 -7 c-243 -22 -452 -113 -610 -265 -190 -183 -287 -437 -287 -750 1 -486 277 -853 721 -959 98 -24 154 -32 215 -32 l65 0 0 500 0 500 508 2 c279 1 518 1 532 1 46 -2 264 37 330 58 304 98 509 314 601 629 24 82 49 223 49 276 l0 42 -1005 7 -1005 7 0 499 0 499 513 3 512 2 -510 0 c-280 0 -739 -1 -1019 -2z m2497 -1073 c-3 -76 -14 -152 -24 -171 -5 -10 -9 -27 -9 -39 0 -11 -9 -46 -21 -78 -11 -31 -21 -63 -22 -69 0 -7 -4 -13 -9 -13 -4 0 -8 -8 -8 -19 0 -10 -11 -35 -25 -55 -14 -20 -25 -41 -25 -45 0 -5 -7 -14 -15 -21 -8 -7 -13 -16 -10 -20 3 -4 -6 -15 -20 -24 -14 -9 -25 -26 -25 -37 0 -11 -4 -17 -10 -14 -5 3 -10 0 -10 -8 0 -12 -87 -98 -95 -94 -2 1 -19 -13 -39 -31 -20 -18 -36 -29 -36 -25 0 5 -4 3 -8 -2 -4 -6 -18 -16 -32 -23 -14 -7 -44 -23 -67 -36 -51 -29 -128 -56 -160 -56 -13 0 -23 -4 -23 -10 0 -5 -25 -10 -56 -10 -34 0 -53 -4 -49 -10 4 -6 -18 -10 -57 -11 -35 -1 -75 -2 -91 -3 l-27 -1 0 480 c-1 264 -1 483 0 488 0 4 219 6 488 5 l487 -3 -2 -45z"/>
 <path fill="#a6cb50" d="M2168 3053 c7 -3 16 -2 19 1 4 3 -2 6 -13 5 -11 0 -14 -3 -6 -6z"/>
 <path fill="#a6cb50" d="M2243 3043 c4 -3 10 -3 14 0 3 4 0 7 -7 7 -7 0 -10 -3 -7 -7z"/>
 <path fill="#a6cb50" d="M2293 3033 c4 -3 10 -3 14 0 3 4 0 7 -7 7 -7 0 -10 -3 -7 -7z"/>
 <path fill="#a6cb50" d="M2665 2880 c3 -5 8 -10 11 -10 3 0 2 5 -1 10 -3 6 -8 10 -11 10 -3 0 -2 -4 1 -10z"/>
 <path fill="#a6cb50" d="M2705 2850 c3 -5 8 -10 11 -10 3 0 2 5 -1 10 -3 6 -8 10 -11 10 -3 0 -2 -4 1 -10z"/>
 <path fill="#a6cb50" d="M2835 2720 c3 -5 8 -10 11 -10 3 0 2 5 -1 10 -3 6 -8 10 -11 10 -3 0 -2 -4 1 -10z"/>
 <path fill="#a6cb50" d="M2865 2680 c3 -5 8 -10 11 -10 3 0 2 5 -1 10 -3 6 -8 10 -11 10 -3 0 -2 -4 1 -10z"/>
 <path fill="#a6cb50" d="M3020 2330 c0 -7 3 -10 7 -7 3 4 3 10 0 14 -4 3 -7 0 -7 -7z"/>
 <path fill="#a6cb50" d="M3030 2280 c0 -7 3 -10 7 -7 3 4 3 10 0 14 -4 3 -7 0 -7 -7z"/>
 <path fill="#a6cb50" d="M3040 2230 c0 -7 3 -10 7 -7 3 4 3 10 0 14 -4 3 -7 0 -7 -7z"/>
 <path fill="#a6cb50" d="M3051 2154 c0 -11 3 -14 6 -6 3 7 2 16 -1 19 -3 4 -6 -2 -5 -13z"/>
 <path fill="#a6cb50" d="M2178 1033 c6 -2 18 -2 25 0 6 3 1 5 -13 5 -14 0 -19 -2 -12 -5z"/>
 <path fill="#a6cb50" d="M2238 1023 c7 -3 16 -2 19 1 4 3 -2 6 -13 5 -11 0 -14 -3 -6 -6z"/>
 <path fill="#a6cb50" d="M2283 1013 c4 -3 10 -3 14 0 3 4 0 7 -7 7 -7 0 -10 -3 -7 -7z"/>
 <path fill="#a6cb50" d="M2323 1003 c4 -3 10 -3 14 0 3 4 0 7 -7 7 -7 0 -10 -3 -7 -7z"/>
 <path fill="#a6cb50" d="M2353 993 c4 -3 10 -3 14 0 3 4 0 7 -7 7 -7 0 -10 -3 -7 -7z"/>
 <path fill="#a6cb50" d="M2383 983 c4 -3 10 -3 14 0 3 4 0 7 -7 7 -7 0 -10 -3 -7 -7z"/>
 <path fill="#a6cb50" d="M2413 973 c4 -3 10 -3 14 0 3 4 0 7 -7 7 -7 0 -10 -3 -7 -7z"/>
 <path fill="#a6cb50" d="M2625 860 c3 -5 8 -10 11 -10 3 0 2 5 -1 10 -3 6 -8 10 -11 10 -3 0 -2 -4 1 -10z"/>
 <path fill="#a6cb50" d="M2660 836 c0 -2 8 -10 18 -17 15 -13 16 -12 3 4 -13 16 -21 21 -21 13z"/>
 <path fill="#a6cb50" d="M2770 726 c0 -2 8 -10 18 -17 15 -13 16 -12 3 4 -13 16 -21 21 -21 13z"/>
 <path fill="#a6cb50" d="M2825 660 c3 -5 8 -10 11 -10 3 0 2 5 -1 10 -3 6 -8 10 -11 10 -3 0 -2 -4 1 -10z"/>
 <path fill="#a6cb50" d="M2845 630 c3 -5 8 -10 11 -10 3 0 2 5 -1 10 -3 6 -8 10 -11 10 -3 0 -2 -4 1 -10z"/>
 <path fill="#a6cb50" d="M2865 600 c3 -5 8 -10 11 -10 3 0 2 5 -1 10 -3 6 -8 10 -11 10 -3 0 -2 -4 1 -10z"/>
 <path fill="#a6cb50" d="M2895 550 c3 -5 8 -10 11 -10 3 0 2 5 -1 10 -3 6 -8 10 -11 10 -3 0 -2 -4 1 -10z"/>
 <path fill="#a6cb50" d="M2940 460 c0 -7 3 -10 7 -7 3 4 3 10 0 14 -4 3 -7 0 -7 -7z"/>
 <path fill="#a6cb50" d="M2980 360 c0 -7 3 -10 7 -7 3 4 3 10 0 14 -4 3 -7 0 -7 -7z"/>
 <path fill="#a6cb50" d="M2990 330 c0 -7 3 -10 7 -7 3 4 3 10 0 14 -4 3 -7 0 -7 -7z"/>
 <path fill="#a6cb50" d="M3000 300 c0 -7 3 -10 7 -7 3 4 3 10 0 14 -4 3 -7 0 -7 -7z"/>
 <path fill="#a6cb50" d="M3010 270 c0 -7 3 -10 7 -7 3 4 3 10 0 14 -4 3 -7 0 -7 -7z"/>
 <path fill="#a6cb50" d="M3020 230 c0 -7 3 -10 7 -7 3 4 3 10 0 14 -4 3 -7 0 -7 -7z"/>
 <path fill="#a6cb50" d="M3030 190 c0 -7 3 -10 7 -7 3 4 3 10 0 14 -4 3 -7 0 -7 -7z"/>
 <path fill="#a6cb50" d="M3040 140 c0 -7 3 -10 7 -7 3 4 3 10 0 14 -4 3 -7 0 -7 -7z"/>
 <path fill="#a6cb50" d="M3050 90 c0 -7 3 -10 7 -7 3 4 3 10 0 14 -4 3 -7 0 -7 -7z"/>
 <path fill="#a6cb50" d="M1273 33 c125 -2 329 -2 455 0 125 1 22 2 -228 2 -250 0 -353 -1 -227 -2z"/>
 <path fill="#a6cb50" d="M1983 33 c4 -3 10 -3 14 0 3 4 0 7 -7 7 -7 0 -10 -3 -7 -7z"/>
 <path fill="#a6cb50" d="M2013 33 c4 -3 10 -3 14 0 3 4 0 7 -7 7 -7 0 -10 -3 -7 -7z"/>
 <path fill="#a6cb50" d="M2303 33 c142 -2 372 -2 510 0 139 1 23 2 -258 2 -280 0 -394 -1 -252 -2z"/>
 </g>
<g id="layer116">
 <path fill="#fdcb07" d="M546 3063 l-509 -3 7 -83 c10 -123 33 -221 77 -332 130 -327 388 -518 773 -574 l121 -18 -79 -7 c-243 -22 -452 -113 -610 -265 -190 -183 -287 -437 -287 -750 1 -486 277 -853 721 -959 98 -24 154 -32 215 -32 l65 0 0 500 0 500 508 2 507 3 0 505 0 505 -502 3 -503 2 0 500 0 500 513 3 512 2 -510 0 c-280 0 -739 -1 -1019 -2z"/>
 <path fill="#fdcb07" d="M2173 3053 c4 -3 10 -3 14 0 3 4 0 7 -7 7 -7 0 -10 -3 -7 -7z"/>
 <path fill="#fdcb07" d="M2243 3043 c4 -3 10 -3 14 0 3 4 0 7 -7 7 -7 0 -10 -3 -7 -7z"/>
 <path fill="#fdcb07" d="M2293 3033 c4 -3 10 -3 14 0 3 4 0 7 -7 7 -7 0 -10 -3 -7 -7z"/>
 <path fill="#fdcb07" d="M2665 2880 c3 -5 8 -10 11 -10 3 0 2 5 -1 10 -3 6 -8 10 -11 10 -3 0 -2 -4 1 -10z"/>
 <path fill="#fdcb07" d="M2705 2850 c3 -5 8 -10 11 -10 3 0 2 5 -1 10 -3 6 -8 10 -11 10 -3 0 -2 -4 1 -10z"/>
 <path fill="#fdcb07" d="M2835 2720 c3 -5 8 -10 11 -10 3 0 2 5 -1 10 -3 6 -8 10 -11 10 -3 0 -2 -4 1 -10z"/>
 <path fill="#fdcb07" d="M2865 2680 c3 -5 8 -10 11 -10 3 0 2 5 -1 10 -3 6 -8 10 -11 10 -3 0 -2 -4 1 -10z"/>
 <path fill="#fdcb07" d="M3020 2330 c0 -7 3 -10 7 -7 3 4 3 10 0 14 -4 3 -7 0 -7 -7z"/>
 <path fill="#fdcb07" d="M3030 2280 c0 -7 3 -10 7 -7 3 4 3 10 0 14 -4 3 -7 0 -7 -7z"/>
 <path fill="#fdcb07" d="M3040 2230 c0 -7 3 -10 7 -7 3 4 3 10 0 14 -4 3 -7 0 -7 -7z"/>
 <path fill="#fdcb07" d="M3051 2154 c0 -11 3 -14 6 -6 3 7 2 16 -1 19 -3 4 -6 -2 -5 -13z"/>
 <path fill="#fdcb07" d="M3051 1954 c0 -11 3 -14 6 -6 3 7 2 16 -1 19 -3 4 -6 -2 -5 -13z"/>
 <path fill="#fdcb07" d="M3041 1894 c0 -11 3 -14 6 -6 3 7 2 16 -1 19 -3 4 -6 -2 -5 -13z"/>
 <path fill="#fdcb07" d="M3030 1830 c0 -7 3 -10 7 -7 3 4 3 10 0 14 -4 3 -7 0 -7 -7z"/>
 <path fill="#fdcb07" d="M3020 1790 c0 -7 3 -10 7 -7 3 4 3 10 0 14 -4 3 -7 0 -7 -7z"/>
 <path fill="#fdcb07" d="M2990 1680 c0 -7 3 -10 7 -7 3 4 3 10 0 14 -4 3 -7 0 -7 -7z"/>
 <path fill="#fdcb07" d="M2884 1458 c-4 -7 -3 -8 4 -4 7 4 12 9 12 12 0 8 -9 4 -16 -8z"/>
 <path fill="#fdcb07" d="M2864 1428 c-4 -7 -3 -8 4 -4 7 4 12 9 12 12 0 8 -9 4 -16 -8z"/>
 <path fill="#fdcb07" d="M2829 1383 c-13 -16 -12 -17 4 -4 16 13 21 21 13 21 -2 0 -10 -8 -17 -17z"/>
 <path fill="#fdcb07" d="M2709 1263 c-13 -16 -12 -17 4 -4 16 13 21 21 13 21 -2 0 -10 -8 -17 -17z"/>
 <path fill="#fdcb07" d="M2634 1208 c-4 -7 -3 -8 4 -4 7 4 12 9 12 12 0 8 -9 4 -16 -8z"/>
 <path fill="#fdcb07" d="M2463 1123 c4 -3 10 -3 14 0 3 4 0 7 -7 7 -7 0 -10 -3 -7 -7z"/>
 <path fill="#fdcb07" d="M2373 1093 c4 -3 10 -3 14 0 3 4 0 7 -7 7 -7 0 -10 -3 -7 -7z"/>
 <path fill="#fdcb07" d="M2343 1083 c4 -3 10 -3 14 0 3 4 0 7 -7 7 -7 0 -10 -3 -7 -7z"/>
 <path fill="#fdcb07" d="M2288 1073 c7 -3 16 -2 19 1 4 3 -2 6 -13 5 -11 0 -14 -3 -6 -6z"/>
 <path fill="#fdcb07" d="M2243 1063 c4 -3 10 -3 14 0 3 4 0 7 -7 7 -7 0 -10 -3 -7 -7z"/>
 <path fill="#fdcb07" d="M2086 1050 c8 -8 27 -8 60 -2 l49 10 -59 1 c-42 1 -57 -2 -50 -9z"/>
 <path fill="#fdcb07" d="M2178 1033 c6 -2 18 -2 25 0 6 3 1 5 -13 5 -14 0 -19 -2 -12 -5z"/>
 <path fill="#fdcb07" d="M2238 1023 c7 -3 16 -2 19 1 4 3 -2 6 -13 5 -11 0 -14 -3 -6 -6z"/>
 <path fill="#fdcb07" d="M2283 1013 c4 -3 10 -3 14 0 3 4 0 7 -7 7 -7 0 -10 -3 -7 -7z"/>
 <path fill="#fdcb07" d="M2323 1003 c4 -3 10 -3 14 0 3 4 0 7 -7 7 -7 0 -10 -3 -7 -7z"/>
 <path fill="#fdcb07" d="M2353 993 c4 -3 10 -3 14 0 3 4 0 7 -7 7 -7 0 -10 -3 -7 -7z"/>
 <path fill="#fdcb07" d="M2383 983 c4 -3 10 -3 14 0 3 4 0 7 -7 7 -7 0 -10 -3 -7 -7z"/>
 <path fill="#fdcb07" d="M2413 973 c4 -3 10 -3 14 0 3 4 0 7 -7 7 -7 0 -10 -3 -7 -7z"/>
 <path fill="#fdcb07" d="M2625 860 c3 -5 8 -10 11 -10 3 0 2 5 -1 10 -3 6 -8 10 -11 10 -3 0 -2 -4 1 -10z"/>
 <path fill="#fdcb07" d="M2660 836 c0 -2 8 -10 18 -17 15 -13 16 -12 3 4 -13 16 -21 21 -21 13z"/>
 <path fill="#fdcb07" d="M2770 726 c0 -2 8 -10 18 -17 15 -13 16 -12 3 4 -13 16 -21 21 -21 13z"/>
 <path fill="#fdcb07" d="M2825 660 c3 -5 8 -10 11 -10 3 0 2 5 -1 10 -3 6 -8 10 -11 10 -3 0 -2 -4 1 -10z"/>
 <path fill="#fdcb07" d="M2845 630 c3 -5 8 -10 11 -10 3 0 2 5 -1 10 -3 6 -8 10 -11 10 -3 0 -2 -4 1 -10z"/>
 <path fill="#fdcb07" d="M2865 600 c3 -5 8 -10 11 -10 3 0 2 5 -1 10 -3 6 -8 10 -11 10 -3 0 -2 -4 1 -10z"/>
 <path fill="#fdcb07" d="M2895 550 c3 -5 8 -10 11 -10 3 0 2 5 -1 10 -3 6 -8 10 -11 10 -3 0 -2 -4 1 -10z"/>
 <path fill="#fdcb07" d="M2940 460 c0 -7 3 -10 7 -7 3 4 3 10 0 14 -4 3 -7 0 -7 -7z"/>
 <path fill="#fdcb07" d="M2980 360 c0 -7 3 -10 7 -7 3 4 3 10 0 14 -4 3 -7 0 -7 -7z"/>
 <path fill="#fdcb07" d="M2990 330 c0 -7 3 -10 7 -7 3 4 3 10 0 14 -4 3 -7 0 -7 -7z"/>
 <path fill="#fdcb07" d="M3000 300 c0 -7 3 -10 7 -7 3 4 3 10 0 14 -4 3 -7 0 -7 -7z"/>
 <path fill="#fdcb07" d="M3010 270 c0 -7 3 -10 7 -7 3 4 3 10 0 14 -4 3 -7 0 -7 -7z"/>
 <path fill="#fdcb07" d="M3020 230 c0 -7 3 -10 7 -7 3 4 3 10 0 14 -4 3 -7 0 -7 -7z"/>
 <path fill="#fdcb07" d="M3030 190 c0 -7 3 -10 7 -7 3 4 3 10 0 14 -4 3 -7 0 -7 -7z"/>
 <path fill="#fdcb07" d="M3040 140 c0 -7 3 -10 7 -7 3 4 3 10 0 14 -4 3 -7 0 -7 -7z"/>
 <path fill="#fdcb07" d="M3050 90 c0 -7 3 -10 7 -7 3 4 3 10 0 14 -4 3 -7 0 -7 -7z"/>
 <path fill="#fdcb07" d="M1273 33 c125 -2 329 -2 455 0 125 1 22 2 -228 2 -250 0 -353 -1 -227 -2z"/>
 <path fill="#fdcb07" d="M1983 33 c4 -3 10 -3 14 0 3 4 0 7 -7 7 -7 0 -10 -3 -7 -7z"/>
 <path fill="#fdcb07" d="M2013 33 c4 -3 10 -3 14 0 3 4 0 7 -7 7 -7 0 -10 -3 -7 -7z"/>
 <path fill="#fdcb07" d="M2303 33 c142 -2 372 -2 510 0 139 1 23 2 -258 2 -280 0 -394 -1 -252 -2z"/>
 </g>
<g id="layer117">
 <path fill="#5eb6d9" d="M546 3063 l-509 -3 7 -83 c10 -123 33 -221 77 -332 130 -327 388 -518 773 -574 l121 -18 -79 -7 c-360 -33 -639 -214 -788 -511 -62 -123 -107 -304 -108 -430 l0 -60 1008 0 1007 0 0 505 0 505 -502 3 -503 2 0 500 0 500 513 3 512 2 -510 0 c-280 0 -739 -1 -1019 -2z"/>
 <path fill="#5eb6d9" d="M2173 3053 c4 -3 10 -3 14 0 3 4 0 7 -7 7 -7 0 -10 -3 -7 -7z"/>
 <path fill="#5eb6d9" d="M2243 3043 c4 -3 10 -3 14 0 3 4 0 7 -7 7 -7 0 -10 -3 -7 -7z"/>
 <path fill="#5eb6d9" d="M2293 3033 c4 -3 10 -3 14 0 3 4 0 7 -7 7 -7 0 -10 -3 -7 -7z"/>
 <path fill="#5eb6d9" d="M2665 2880 c3 -5 8 -10 11 -10 3 0 2 5 -1 10 -3 6 -8 10 -11 10 -3 0 -2 -4 1 -10z"/>
 <path fill="#5eb6d9" d="M2705 2850 c3 -5 8 -10 11 -10 3 0 2 5 -1 10 -3 6 -8 10 -11 10 -3 0 -2 -4 1 -10z"/>
 <path fill="#5eb6d9" d="M2835 2720 c3 -5 8 -10 11 -10 3 0 2 5 -1 10 -3 6 -8 10 -11 10 -3 0 -2 -4 1 -10z"/>
 <path fill="#5eb6d9" d="M2865 2680 c3 -5 8 -10 11 -10 3 0 2 5 -1 10 -3 6 -8 10 -11 10 -3 0 -2 -4 1 -10z"/>
 <path fill="#5eb6d9" d="M3020 2330 c0 -7 3 -10 7 -7 3 4 3 10 0 14 -4 3 -7 0 -7 -7z"/>
 <path fill="#5eb6d9" d="M3030 2280 c0 -7 3 -10 7 -7 3 4 3 10 0 14 -4 3 -7 0 -7 -7z"/>
 <path fill="#5eb6d9" d="M3040 2230 c0 -7 3 -10 7 -7 3 4 3 10 0 14 -4 3 -7 0 -7 -7z"/>
 <path fill="#5eb6d9" d="M3051 2154 c0 -11 3 -14 6 -6 3 7 2 16 -1 19 -3 4 -6 -2 -5 -13z"/>
 <path fill="#5eb6d9" d="M3051 1954 c0 -11 3 -14 6 -6 3 7 2 16 -1 19 -3 4 -6 -2 -5 -13z"/>
 <path fill="#5eb6d9" d="M3041 1894 c0 -11 3 -14 6 -6 3 7 2 16 -1 19 -3 4 -6 -2 -5 -13z"/>
 <path fill="#5eb6d9" d="M3030 1830 c0 -7 3 -10 7 -7 3 4 3 10 0 14 -4 3 -7 0 -7 -7z"/>
 <path fill="#5eb6d9" d="M3020 1790 c0 -7 3 -10 7 -7 3 4 3 10 0 14 -4 3 -7 0 -7 -7z"/>
 <path fill="#5eb6d9" d="M2990 1680 c0 -7 3 -10 7 -7 3 4 3 10 0 14 -4 3 -7 0 -7 -7z"/>
 <path fill="#5eb6d9" d="M2884 1458 c-4 -7 -3 -8 4 -4 7 4 12 9 12 12 0 8 -9 4 -16 -8z"/>
 <path fill="#5eb6d9" d="M2864 1428 c-4 -7 -3 -8 4 -4 7 4 12 9 12 12 0 8 -9 4 -16 -8z"/>
 <path fill="#5eb6d9" d="M2829 1383 c-13 -16 -12 -17 4 -4 16 13 21 21 13 21 -2 0 -10 -8 -17 -17z"/>
 <path fill="#5eb6d9" d="M2709 1263 c-13 -16 -12 -17 4 -4 16 13 21 21 13 21 -2 0 -10 -8 -17 -17z"/>
 <path fill="#5eb6d9" d="M2634 1208 c-4 -7 -3 -8 4 -4 7 4 12 9 12 12 0 8 -9 4 -16 -8z"/>
 <path fill="#5eb6d9" d="M2463 1123 c4 -3 10 -3 14 0 3 4 0 7 -7 7 -7 0 -10 -3 -7 -7z"/>
 <path fill="#5eb6d9" d="M2373 1093 c4 -3 10 -3 14 0 3 4 0 7 -7 7 -7 0 -10 -3 -7 -7z"/>
 <path fill="#5eb6d9" d="M2343 1083 c4 -3 10 -3 14 0 3 4 0 7 -7 7 -7 0 -10 -3 -7 -7z"/>
 <path fill="#5eb6d9" d="M2288 1073 c7 -3 16 -2 19 1 4 3 -2 6 -13 5 -11 0 -14 -3 -6 -6z"/>
 <path fill="#5eb6d9" d="M2243 1063 c4 -3 10 -3 14 0 3 4 0 7 -7 7 -7 0 -10 -3 -7 -7z"/>
 <path fill="#5eb6d9" d="M2086 1050 c8 -8 27 -8 60 -2 l49 10 -59 1 c-42 1 -57 -2 -50 -9z"/>
 <path fill="#5eb6d9" d="M2178 1033 c6 -2 18 -2 25 0 6 3 1 5 -13 5 -14 0 -19 -2 -12 -5z"/>
 <path fill="#5eb6d9" d="M2238 1023 c7 -3 16 -2 19 1 4 3 -2 6 -13 5 -11 0 -14 -3 -6 -6z"/>
 <path fill="#5eb6d9" d="M2283 1013 c4 -3 10 -3 14 0 3 4 0 7 -7 7 -7 0 -10 -3 -7 -7z"/>
 <path fill="#5eb6d9" d="M2323 1003 c4 -3 10 -3 14 0 3 4 0 7 -7 7 -7 0 -10 -3 -7 -7z"/>
 <path fill="#5eb6d9" d="M2353 993 c4 -3 10 -3 14 0 3 4 0 7 -7 7 -7 0 -10 -3 -7 -7z"/>
 <path fill="#5eb6d9" d="M2383 983 c4 -3 10 -3 14 0 3 4 0 7 -7 7 -7 0 -10 -3 -7 -7z"/>
 <path fill="#5eb6d9" d="M2413 973 c4 -3 10 -3 14 0 3 4 0 7 -7 7 -7 0 -10 -3 -7 -7z"/>
 <path fill="#5eb6d9" d="M41 919 c1 -19 5 -47 10 -64 5 -20 6 -9 2 30 -6 66 -14 88 -12 34z"/>
 <path fill="#5eb6d9" d="M2625 860 c3 -5 8 -10 11 -10 3 0 2 5 -1 10 -3 6 -8 10 -11 10 -3 0 -2 -4 1 -10z"/>
 <path fill="#5eb6d9" d="M2660 836 c0 -2 8 -10 18 -17 15 -13 16 -12 3 4 -13 16 -21 21 -21 13z"/>
 <path fill="#5eb6d9" d="M62 795 c0 -11 3 -29 8 -40 11 -25 11 1 0 35 -6 20 -8 21 -8 5z"/>
 <path fill="#5eb6d9" d="M81 724 c-1 -15 30 -106 35 -101 2 2 -5 28 -15 58 -11 30 -20 49 -20 43z"/>
 <path fill="#5eb6d9" d="M2770 726 c0 -2 8 -10 18 -17 15 -13 16 -12 3 4 -13 16 -21 21 -21 13z"/>
 <path fill="#5eb6d9" d="M2825 660 c3 -5 8 -10 11 -10 3 0 2 5 -1 10 -3 6 -8 10 -11 10 -3 0 -2 -4 1 -10z"/>
 <path fill="#5eb6d9" d="M2845 630 c3 -5 8 -10 11 -10 3 0 2 5 -1 10 -3 6 -8 10 -11 10 -3 0 -2 -4 1 -10z"/>
 <path fill="#5eb6d9" d="M124 595 c10 -28 76 -145 82 -145 4 0 -74 150 -84 160 -3 3 -2 -4 2 -15z"/>
 <path fill="#5eb6d9" d="M2865 600 c3 -5 8 -10 11 -10 3 0 2 5 -1 10 -3 6 -8 10 -11 10 -3 0 -2 -4 1 -10z"/>
 <path fill="#5eb6d9" d="M2895 550 c3 -5 8 -10 11 -10 3 0 2 5 -1 10 -3 6 -8 10 -11 10 -3 0 -2 -4 1 -10z"/>
 <path fill="#5eb6d9" d="M2940 460 c0 -7 3 -10 7 -7 3 4 3 10 0 14 -4 3 -7 0 -7 -7z"/>
 <path fill="#5eb6d9" d="M210 436 c0 -2 8 -10 18 -17 15 -13 16 -12 3 4 -13 16 -21 21 -21 13z"/>
 <path fill="#5eb6d9" d="M270 363 c18 -24 35 -43 37 -43 7 0 -35 56 -54 71 -9 8 -2 -5 17 -28z"/>
 <path fill="#5eb6d9" d="M2980 360 c0 -7 3 -10 7 -7 3 4 3 10 0 14 -4 3 -7 0 -7 -7z"/>
 <path fill="#5eb6d9" d="M2990 330 c0 -7 3 -10 7 -7 3 4 3 10 0 14 -4 3 -7 0 -7 -7z"/>
 <path fill="#5eb6d9" d="M320 307 c0 -2 19 -19 43 -37 23 -19 36 -26 28 -17 -15 19 -71 61 -71 54z"/>
 <path fill="#5eb6d9" d="M3000 300 c0 -7 3 -10 7 -7 3 4 3 10 0 14 -4 3 -7 0 -7 -7z"/>
 <path fill="#5eb6d9" d="M3010 270 c0 -7 3 -10 7 -7 3 4 3 10 0 14 -4 3 -7 0 -7 -7z"/>
 <path fill="#5eb6d9" d="M416 229 c7 -12 144 -93 148 -88 2 2 -32 25 -75 50 -43 26 -76 43 -73 38z"/>
 <path fill="#5eb6d9" d="M3020 230 c0 -7 3 -10 7 -7 3 4 3 10 0 14 -4 3 -7 0 -7 -7z"/>
 <path fill="#5eb6d9" d="M3030 190 c0 -7 3 -10 7 -7 3 4 3 10 0 14 -4 3 -7 0 -7 -7z"/>
 <path fill="#5eb6d9" d="M3040 140 c0 -7 3 -10 7 -7 3 4 3 10 0 14 -4 3 -7 0 -7 -7z"/>
 <path fill="#5eb6d9" d="M587 129 c7 -7 15 -10 18 -7 3 3 -2 9 -12 12 -14 6 -15 5 -6 -5z"/>
 <path fill="#5eb6d9" d="M630 110 c8 -5 22 -9 30 -9 10 0 8 3 -5 9 -27 12 -43 12 -25 0z"/>
 <path fill="#5eb6d9" d="M690 90 c8 -5 24 -10 34 -10 26 0 18 6 -19 14 -22 5 -26 4 -15 -4z"/>
 <path fill="#5eb6d9" d="M3050 90 c0 -7 3 -10 7 -7 3 4 3 10 0 14 -4 3 -7 0 -7 -7z"/>
 <path fill="#5eb6d9" d="M765 70 c11 -5 29 -8 40 -8 16 0 15 2 -5 8 -34 11 -60 11 -35 0z"/>
 <path fill="#5eb6d9" d="M865 50 c31 -8 112 -13 104 -6 -2 2 -33 6 -69 9 -41 3 -54 2 -35 -3z"/>
 <path fill="#5eb6d9" d="M1273 33 c125 -2 329 -2 455 0 125 1 22 2 -228 2 -250 0 -353 -1 -227 -2z"/>
 <path fill="#5eb6d9" d="M1983 33 c4 -3 10 -3 14 0 3 4 0 7 -7 7 -7 0 -10 -3 -7 -7z"/>
 <path fill="#5eb6d9" d="M2013 33 c4 -3 10 -3 14 0 3 4 0 7 -7 7 -7 0 -10 -3 -7 -7z"/>
 <path fill="#5eb6d9" d="M2303 33 c142 -2 372 -2 510 0 139 1 23 2 -258 2 -280 0 -394 -1 -252 -2z"/>
 </g>
<g id="layer118">
 <path fill="#f07d84" d="M1303 3063 c141 -2 373 -2 515 0 141 1 25 2 -258 2 -283 0 -399 -1 -257 -2z"/>
 <path fill="#f07d84" d="M44 2978 c10 -124 33 -222 77 -333 130 -327 388 -518 773 -574 l121 -18 -79 -7 c-360 -33 -639 -214 -788 -511 -62 -123 -107 -304 -108 -430 l0 -60 1008 0 1007 0 3 502 2 503 -507 2 -508 3 -3 503 -2 502 -502 0 -501 0 7 -82z"/>
 <path fill="#f07d84" d="M3040 2230 c0 -7 3 -10 7 -7 3 4 3 10 0 14 -4 3 -7 0 -7 -7z"/>
 <path fill="#f07d84" d="M3051 1954 c0 -11 3 -14 6 -6 3 7 2 16 -1 19 -3 4 -6 -2 -5 -13z"/>
 <path fill="#f07d84" d="M3041 1894 c0 -11 3 -14 6 -6 3 7 2 16 -1 19 -3 4 -6 -2 -5 -13z"/>
 <path fill="#f07d84" d="M3030 1830 c0 -7 3 -10 7 -7 3 4 3 10 0 14 -4 3 -7 0 -7 -7z"/>
 <path fill="#f07d84" d="M3020 1790 c0 -7 3 -10 7 -7 3 4 3 10 0 14 -4 3 -7 0 -7 -7z"/>
 <path fill="#f07d84" d="M2990 1680 c0 -7 3 -10 7 -7 3 4 3 10 0 14 -4 3 -7 0 -7 -7z"/>
 <path fill="#f07d84" d="M2884 1458 c-4 -7 -3 -8 4 -4 7 4 12 9 12 12 0 8 -9 4 -16 -8z"/>
 <path fill="#f07d84" d="M2864 1428 c-4 -7 -3 -8 4 -4 7 4 12 9 12 12 0 8 -9 4 -16 -8z"/>
 <path fill="#f07d84" d="M2829 1383 c-13 -16 -12 -17 4 -4 16 13 21 21 13 21 -2 0 -10 -8 -17 -17z"/>
 <path fill="#f07d84" d="M2709 1263 c-13 -16 -12 -17 4 -4 16 13 21 21 13 21 -2 0 -10 -8 -17 -17z"/>
 <path fill="#f07d84" d="M2634 1208 c-4 -7 -3 -8 4 -4 7 4 12 9 12 12 0 8 -9 4 -16 -8z"/>
 <path fill="#f07d84" d="M2463 1123 c4 -3 10 -3 14 0 3 4 0 7 -7 7 -7 0 -10 -3 -7 -7z"/>
 <path fill="#f07d84" d="M2373 1093 c4 -3 10 -3 14 0 3 4 0 7 -7 7 -7 0 -10 -3 -7 -7z"/>
 <path fill="#f07d84" d="M2343 1083 c4 -3 10 -3 14 0 3 4 0 7 -7 7 -7 0 -10 -3 -7 -7z"/>
 <path fill="#f07d84" d="M2288 1073 c7 -3 16 -2 19 1 4 3 -2 6 -13 5 -11 0 -14 -3 -6 -6z"/>
 <path fill="#f07d84" d="M2243 1063 c4 -3 10 -3 14 0 3 4 0 7 -7 7 -7 0 -10 -3 -7 -7z"/>
 <path fill="#f07d84" d="M2086 1050 c8 -8 27 -8 60 -2 l49 10 -59 1 c-42 1 -57 -2 -50 -9z"/>
 <path fill="#f07d84" d="M2178 1033 c6 -2 18 -2 25 0 6 3 1 5 -13 5 -14 0 -19 -2 -12 -5z"/>
 <path fill="#f07d84" d="M2238 1023 c7 -3 16 -2 19 1 4 3 -2 6 -13 5 -11 0 -14 -3 -6 -6z"/>
 <path fill="#f07d84" d="M2283 1013 c4 -3 10 -3 14 0 3 4 0 7 -7 7 -7 0 -10 -3 -7 -7z"/>
 <path fill="#f07d84" d="M2323 1003 c4 -3 10 -3 14 0 3 4 0 7 -7 7 -7 0 -10 -3 -7 -7z"/>
 <path fill="#f07d84" d="M2353 993 c4 -3 10 -3 14 0 3 4 0 7 -7 7 -7 0 -10 -3 -7 -7z"/>
 <path fill="#f07d84" d="M2383 983 c4 -3 10 -3 14 0 3 4 0 7 -7 7 -7 0 -10 -3 -7 -7z"/>
 <path fill="#f07d84" d="M2413 973 c4 -3 10 -3 14 0 3 4 0 7 -7 7 -7 0 -10 -3 -7 -7z"/>
 <path fill="#f07d84" d="M41 919 c1 -19 5 -47 10 -64 5 -20 6 -9 2 30 -6 66 -14 88 -12 34z"/>
 <path fill="#f07d84" d="M2625 860 c3 -5 8 -10 11 -10 3 0 2 5 -1 10 -3 6 -8 10 -11 10 -3 0 -2 -4 1 -10z"/>
 <path fill="#f07d84" d="M2660 836 c0 -2 8 -10 18 -17 15 -13 16 -12 3 4 -13 16 -21 21 -21 13z"/>
 <path fill="#f07d84" d="M62 795 c0 -11 3 -29 8 -40 11 -25 11 1 0 35 -6 20 -8 21 -8 5z"/>
 <path fill="#f07d84" d="M81 724 c-1 -15 30 -106 35 -101 2 2 -5 28 -15 58 -11 30 -20 49 -20 43z"/>
 <path fill="#f07d84" d="M2770 726 c0 -2 8 -10 18 -17 15 -13 16 -12 3 4 -13 16 -21 21 -21 13z"/>
 <path fill="#f07d84" d="M2825 660 c3 -5 8 -10 11 -10 3 0 2 5 -1 10 -3 6 -8 10 -11 10 -3 0 -2 -4 1 -10z"/>
 <path fill="#f07d84" d="M2845 630 c3 -5 8 -10 11 -10 3 0 2 5 -1 10 -3 6 -8 10 -11 10 -3 0 -2 -4 1 -10z"/>
 <path fill="#f07d84" d="M124 595 c10 -28 76 -145 82 -145 4 0 -74 150 -84 160 -3 3 -2 -4 2 -15z"/>
 <path fill="#f07d84" d="M2865 600 c3 -5 8 -10 11 -10 3 0 2 5 -1 10 -3 6 -8 10 -11 10 -3 0 -2 -4 1 -10z"/>
 <path fill="#f07d84" d="M2895 550 c3 -5 8 -10 11 -10 3 0 2 5 -1 10 -3 6 -8 10 -11 10 -3 0 -2 -4 1 -10z"/>
 <path fill="#f07d84" d="M2940 460 c0 -7 3 -10 7 -7 3 4 3 10 0 14 -4 3 -7 0 -7 -7z"/>
 <path fill="#f07d84" d="M210 436 c0 -2 8 -10 18 -17 15 -13 16 -12 3 4 -13 16 -21 21 -21 13z"/>
 <path fill="#f07d84" d="M270 363 c18 -24 35 -43 37 -43 7 0 -35 56 -54 71 -9 8 -2 -5 17 -28z"/>
 <path fill="#f07d84" d="M2980 360 c0 -7 3 -10 7 -7 3 4 3 10 0 14 -4 3 -7 0 -7 -7z"/>
 <path fill="#f07d84" d="M2990 330 c0 -7 3 -10 7 -7 3 4 3 10 0 14 -4 3 -7 0 -7 -7z"/>
 <path fill="#f07d84" d="M320 307 c0 -2 19 -19 43 -37 23 -19 36 -26 28 -17 -15 19 -71 61 -71 54z"/>
 <path fill="#f07d84" d="M3000 300 c0 -7 3 -10 7 -7 3 4 3 10 0 14 -4 3 -7 0 -7 -7z"/>
 <path fill="#f07d84" d="M3010 270 c0 -7 3 -10 7 -7 3 4 3 10 0 14 -4 3 -7 0 -7 -7z"/>
 <path fill="#f07d84" d="M416 229 c7 -12 144 -93 148 -88 2 2 -32 25 -75 50 -43 26 -76 43 -73 38z"/>
 <path fill="#f07d84" d="M3020 230 c0 -7 3 -10 7 -7 3 4 3 10 0 14 -4 3 -7 0 -7 -7z"/>
 <path fill="#f07d84" d="M3030 190 c0 -7 3 -10 7 -7 3 4 3 10 0 14 -4 3 -7 0 -7 -7z"/>
 <path fill="#f07d84" d="M3040 140 c0 -7 3 -10 7 -7 3 4 3 10 0 14 -4 3 -7 0 -7 -7z"/>
 <path fill="#f07d84" d="M587 129 c7 -7 15 -10 18 -7 3 3 -2 9 -12 12 -14 6 -15 5 -6 -5z"/>
 <path fill="#f07d84" d="M630 110 c8 -5 22 -9 30 -9 10 0 8 3 -5 9 -27 12 -43 12 -25 0z"/>
 <path fill="#f07d84" d="M690 90 c8 -5 24 -10 34 -10 26 0 18 6 -19 14 -22 5 -26 4 -15 -4z"/>
 <path fill="#f07d84" d="M3050 90 c0 -7 3 -10 7 -7 3 4 3 10 0 14 -4 3 -7 0 -7 -7z"/>
 <path fill="#f07d84" d="M765 70 c11 -5 29 -8 40 -8 16 0 15 2 -5 8 -34 11 -60 11 -35 0z"/>
 <path fill="#f07d84" d="M865 50 c31 -8 112 -13 104 -6 -2 2 -33 6 -69 9 -41 3 -54 2 -35 -3z"/>
 <path fill="#f07d84" d="M1273 33 c125 -2 329 -2 455 0 125 1 22 2 -228 2 -250 0 -353 -1 -227 -2z"/>
 <path fill="#f07d84" d="M1983 33 c4 -3 10 -3 14 0 3 4 0 7 -7 7 -7 0 -10 -3 -7 -7z"/>
 <path fill="#f07d84" d="M2013 33 c4 -3 10 -3 14 0 3 4 0 7 -7 7 -7 0 -10 -3 -7 -7z"/>
 <path fill="#f07d84" d="M2303 33 c142 -2 372 -2 510 0 139 1 23 2 -258 2 -280 0 -394 -1 -252 -2z"/>
 </g>
<g id="layer119">
 <path fill="#d5af6f" d="M1303 3063 c141 -2 373 -2 515 0 141 1 25 2 -258 2 -283 0 -399 -1 -257 -2z"/>
 <path fill="#d5af6f" d="M44 2978 c10 -124 33 -222 77 -333 130 -327 388 -518 773 -574 l121 -18 -79 -7 c-360 -33 -639 -214 -788 -511 -62 -123 -107 -304 -108 -430 l0 -60 1008 0 1007 0 3 502 2 503 -507 2 -508 3 -3 503 -2 502 -502 0 -501 0 7 -82z"/>
 <path fill="#d5af6f" d="M3040 2230 c0 -7 3 -10 7 -7 3 4 3 10 0 14 -4 3 -7 0 -7 -7z"/>
 <path fill="#d5af6f" d="M3051 1954 c0 -11 3 -14 6 -6 3 7 2 16 -1 19 -3 4 -6 -2 -5 -13z"/>
 <path fill="#d5af6f" d="M3041 1894 c0 -11 3 -14 6 -6 3 7 2 16 -1 19 -3 4 -6 -2 -5 -13z"/>
 <path fill="#d5af6f" d="M3030 1830 c0 -7 3 -10 7 -7 3 4 3 10 0 14 -4 3 -7 0 -7 -7z"/>
 <path fill="#d5af6f" d="M3020 1790 c0 -7 3 -10 7 -7 3 4 3 10 0 14 -4 3 -7 0 -7 -7z"/>
 <path fill="#d5af6f" d="M2990 1680 c0 -7 3 -10 7 -7 3 4 3 10 0 14 -4 3 -7 0 -7 -7z"/>
 <path fill="#d5af6f" d="M2884 1458 c-4 -7 -3 -8 4 -4 7 4 12 9 12 12 0 8 -9 4 -16 -8z"/>
 <path fill="#d5af6f" d="M2864 1428 c-4 -7 -3 -8 4 -4 7 4 12 9 12 12 0 8 -9 4 -16 -8z"/>
 <path fill="#d5af6f" d="M2829 1383 c-13 -16 -12 -17 4 -4 16 13 21 21 13 21 -2 0 -10 -8 -17 -17z"/>
 <path fill="#d5af6f" d="M2709 1263 c-13 -16 -12 -17 4 -4 16 13 21 21 13 21 -2 0 -10 -8 -17 -17z"/>
 <path fill="#d5af6f" d="M2634 1208 c-4 -7 -3 -8 4 -4 7 4 12 9 12 12 0 8 -9 4 -16 -8z"/>
 <path fill="#d5af6f" d="M2463 1123 c4 -3 10 -3 14 0 3 4 0 7 -7 7 -7 0 -10 -3 -7 -7z"/>
 <path fill="#d5af6f" d="M2373 1093 c4 -3 10 -3 14 0 3 4 0 7 -7 7 -7 0 -10 -3 -7 -7z"/>
 <path fill="#d5af6f" d="M2343 1083 c4 -3 10 -3 14 0 3 4 0 7 -7 7 -7 0 -10 -3 -7 -7z"/>
 <path fill="#d5af6f" d="M2288 1073 c7 -3 16 -2 19 1 4 3 -2 6 -13 5 -11 0 -14 -3 -6 -6z"/>
 <path fill="#d5af6f" d="M2243 1063 c4 -3 10 -3 14 0 3 4 0 7 -7 7 -7 0 -10 -3 -7 -7z"/>
 <path fill="#d5af6f" d="M2086 1050 c8 -8 27 -8 60 -2 l49 10 -59 1 c-42 1 -57 -2 -50 -9z"/>
 <path fill="#d5af6f" d="M2193 1033 c4 -3 10 -3 14 0 3 4 0 7 -7 7 -7 0 -10 -3 -7 -7z"/>
 <path fill="#d5af6f" d="M41 919 c1 -19 5 -47 10 -64 5 -20 6 -9 2 30 -6 66 -14 88 -12 34z"/>
 <path fill="#d5af6f" d="M62 795 c0 -11 3 -29 8 -40 11 -25 11 1 0 35 -6 20 -8 21 -8 5z"/>
 <path fill="#d5af6f" d="M81 724 c-1 -15 30 -106 35 -101 2 2 -5 28 -15 58 -11 30 -20 49 -20 43z"/>
 <path fill="#d5af6f" d="M124 595 c10 -28 76 -145 82 -145 4 0 -74 150 -84 160 -3 3 -2 -4 2 -15z"/>
 <path fill="#d5af6f" d="M210 436 c0 -2 8 -10 18 -17 15 -13 16 -12 3 4 -13 16 -21 21 -21 13z"/>
 <path fill="#d5af6f" d="M270 363 c18 -24 35 -43 37 -43 7 0 -35 56 -54 71 -9 8 -2 -5 17 -28z"/>
 <path fill="#d5af6f" d="M320 307 c0 -2 19 -19 43 -37 23 -19 36 -26 28 -17 -15 19 -71 61 -71 54z"/>
 <path fill="#d5af6f" d="M416 229 c7 -12 144 -93 148 -88 2 2 -32 25 -75 50 -43 26 -76 43 -73 38z"/>
 <path fill="#d5af6f" d="M587 129 c7 -7 15 -10 18 -7 3 3 -2 9 -12 12 -14 6 -15 5 -6 -5z"/>
 <path fill="#d5af6f" d="M630 110 c8 -5 22 -9 30 -9 10 0 8 3 -5 9 -27 12 -43 12 -25 0z"/>
 <path fill="#d5af6f" d="M690 90 c8 -5 24 -10 34 -10 26 0 18 6 -19 14 -22 5 -26 4 -15 -4z"/>
 <path fill="#d5af6f" d="M765 70 c11 -5 29 -8 40 -8 16 0 15 2 -5 8 -34 11 -60 11 -35 0z"/>
 <path fill="#d5af6f" d="M865 50 c31 -8 112 -13 104 -6 -2 2 -33 6 -69 9 -41 3 -54 2 -35 -3z"/>
 <path fill="#d5af6f" d="M1273 33 c125 -2 329 -2 455 0 125 1 22 2 -228 2 -250 0 -353 -1 -227 -2z"/>
 <path fill="#d5af6f" d="M1983 33 c4 -3 10 -3 14 0 3 4 0 7 -7 7 -7 0 -10 -3 -7 -7z"/>
 <path fill="#d5af6f" d="M2013 33 c4 -3 10 -3 14 0 3 4 0 7 -7 7 -7 0 -10 -3 -7 -7z"/>
 <path fill="#d5af6f" d="M2303 33 c142 -2 372 -2 510 0 139 1 23 2 -258 2 -280 0 -394 -1 -252 -2z"/>
 </g>
<g id="layer120">
 <path fill="#fed955" d="M1303 3063 c141 -2 373 -2 515 0 141 1 25 2 -258 2 -283 0 -399 -1 -257 -2z"/>
 <path fill="#fed955" d="M44 2978 c10 -124 33 -222 77 -333 130 -327 388 -518 773 -574 l121 -18 -79 -7 c-360 -33 -639 -214 -788 -511 -62 -123 -107 -304 -108 -430 l0 -60 507 2 c280 2 734 3 1011 3 l502 0 0 500 0 500 -507 2 -508 3 -3 503 -2 502 -502 0 -501 0 7 -82z"/>
 <path fill="#fed955" d="M3040 2230 c0 -7 3 -10 7 -7 3 4 3 10 0 14 -4 3 -7 0 -7 -7z"/>
 <path fill="#fed955" d="M3051 1954 c0 -11 3 -14 6 -6 3 7 2 16 -1 19 -3 4 -6 -2 -5 -13z"/>
 <path fill="#fed955" d="M3040 1890 c0 -7 3 -10 7 -7 3 4 3 10 0 14 -4 3 -7 0 -7 -7z"/>
 <path fill="#fed955" d="M3030 1830 c0 -7 3 -10 7 -7 3 4 3 10 0 14 -4 3 -7 0 -7 -7z"/>
 <path fill="#fed955" d="M2884 1458 c-4 -7 -3 -8 4 -4 7 4 12 9 12 12 0 8 -9 4 -16 -8z"/>
 <path fill="#fed955" d="M2829 1383 c-13 -16 -12 -17 4 -4 16 13 21 21 13 21 -2 0 -10 -8 -17 -17z"/>
 <path fill="#fed955" d="M2709 1263 c-13 -16 -12 -17 4 -4 16 13 21 21 13 21 -2 0 -10 -8 -17 -17z"/>
 <path fill="#fed955" d="M2634 1208 c-4 -7 -3 -8 4 -4 7 4 12 9 12 12 0 8 -9 4 -16 -8z"/>
 <path fill="#fed955" d="M2373 1093 c4 -3 10 -3 14 0 3 4 0 7 -7 7 -7 0 -10 -3 -7 -7z"/>
 <path fill="#fed955" d="M2343 1083 c4 -3 10 -3 14 0 3 4 0 7 -7 7 -7 0 -10 -3 -7 -7z"/>
 <path fill="#fed955" d="M2293 1073 c4 -3 10 -3 14 0 3 4 0 7 -7 7 -7 0 -10 -3 -7 -7z"/>
 <path fill="#fed955" d="M2243 1063 c4 -3 10 -3 14 0 3 4 0 7 -7 7 -7 0 -10 -3 -7 -7z"/>
 <path fill="#fed955" d="M2158 1053 c6 -2 18 -2 25 0 6 3 1 5 -13 5 -14 0 -19 -2 -12 -5z"/>
 <path fill="#fed955" d="M2193 1033 c4 -3 10 -3 14 0 3 4 0 7 -7 7 -7 0 -10 -3 -7 -7z"/>
 <path fill="#fed955" d="M41 919 c1 -19 5 -47 10 -64 5 -20 6 -9 2 30 -6 66 -14 88 -12 34z"/>
 <path fill="#fed955" d="M62 795 c0 -11 3 -29 8 -40 11 -25 11 1 0 35 -6 20 -8 21 -8 5z"/>
 <path fill="#fed955" d="M81 724 c-1 -15 30 -106 35 -101 2 2 -5 28 -15 58 -11 30 -20 49 -20 43z"/>
 <path fill="#fed955" d="M124 595 c10 -28 76 -145 82 -145 4 0 -74 150 -84 160 -3 3 -2 -4 2 -15z"/>
 <path fill="#fed955" d="M210 436 c0 -2 8 -10 18 -17 15 -13 16 -12 3 4 -13 16 -21 21 -21 13z"/>
 <path fill="#fed955" d="M270 363 c18 -24 35 -43 37 -43 7 0 -35 56 -54 71 -9 8 -2 -5 17 -28z"/>
 <path fill="#fed955" d="M320 307 c0 -2 19 -19 43 -37 23 -19 36 -26 28 -17 -15 19 -71 61 -71 54z"/>
 <path fill="#fed955" d="M416 229 c7 -12 144 -93 148 -88 2 2 -32 25 -75 50 -43 26 -76 43 -73 38z"/>
 <path fill="#fed955" d="M587 129 c7 -7 15 -10 18 -7 3 3 -2 9 -12 12 -14 6 -15 5 -6 -5z"/>
 <path fill="#fed955" d="M630 110 c8 -5 22 -9 30 -9 10 0 8 3 -5 9 -27 12 -43 12 -25 0z"/>
 <path fill="#fed955" d="M690 90 c8 -5 24 -10 34 -10 26 0 18 6 -19 14 -22 5 -26 4 -15 -4z"/>
 <path fill="#fed955" d="M765 70 c11 -5 29 -8 40 -8 16 0 15 2 -5 8 -34 11 -60 11 -35 0z"/>
 <path fill="#fed955" d="M865 50 c31 -8 112 -13 104 -6 -2 2 -33 6 -69 9 -41 3 -54 2 -35 -3z"/>
 <path fill="#fed955" d="M1273 33 c125 -2 329 -2 455 0 125 1 22 2 -228 2 -250 0 -353 -1 -227 -2z"/>
 <path fill="#fed955" d="M1983 33 c4 -3 10 -3 14 0 3 4 0 7 -7 7 -7 0 -10 -3 -7 -7z"/>
 <path fill="#fed955" d="M2013 33 c4 -3 10 -3 14 0 3 4 0 7 -7 7 -7 0 -10 -3 -7 -7z"/>
 <path fill="#fed955" d="M2303 33 c142 -2 372 -2 510 0 139 1 23 2 -258 2 -280 0 -394 -1 -252 -2z"/>
 </g>
<g id="layer121">
 <path fill="#f3d76a" d="M1303 3063 c141 -2 373 -2 515 0 141 1 25 2 -258 2 -283 0 -399 -1 -257 -2z"/>
 <path fill="#f3d76a" d="M44 2978 c10 -124 33 -222 77 -333 130 -327 388 -518 773 -574 l121 -18 -79 -7 c-360 -33 -639 -214 -788 -511 -64 -126 -109 -310 -106 -430 l1 -60 7 65 c15 130 20 156 53 275 6 22 14 44 19 49 4 6 8 17 8 27 0 19 62 134 107 199 47 69 220 230 246 230 5 0 20 9 34 20 14 11 34 20 44 20 11 0 19 4 19 9 0 4 21 14 47 21 27 7 52 17 57 21 6 5 25 9 42 9 18 0 35 4 38 9 7 11 61 20 178 29 l88 7 2 -490 3 -490 513 -3 512 -2 0 500 0 500 -507 2 -508 3 -3 503 -2 502 -502 0 -501 0 7 -82z"/>
 <path fill="#f3d76a" d="M3040 2230 c0 -7 3 -10 7 -7 3 4 3 10 0 14 -4 3 -7 0 -7 -7z"/>
 <path fill="#f3d76a" d="M3051 1954 c0 -11 3 -14 6 -6 3 7 2 16 -1 19 -3 4 -6 -2 -5 -13z"/>
 <path fill="#f3d76a" d="M3040 1890 c0 -7 3 -10 7 -7 3 4 3 10 0 14 -4 3 -7 0 -7 -7z"/>
 <path fill="#f3d76a" d="M3030 1830 c0 -7 3 -10 7 -7 3 4 3 10 0 14 -4 3 -7 0 -7 -7z"/>
 <path fill="#f3d76a" d="M2884 1458 c-4 -7 -3 -8 4 -4 7 4 12 9 12 12 0 8 -9 4 -16 -8z"/>
 <path fill="#f3d76a" d="M2829 1383 c-13 -16 -12 -17 4 -4 16 13 21 21 13 21 -2 0 -10 -8 -17 -17z"/>
 <path fill="#f3d76a" d="M2709 1263 c-13 -16 -12 -17 4 -4 16 13 21 21 13 21 -2 0 -10 -8 -17 -17z"/>
 <path fill="#f3d76a" d="M2634 1208 c-4 -7 -3 -8 4 -4 7 4 12 9 12 12 0 8 -9 4 -16 -8z"/>
 <path fill="#f3d76a" d="M2373 1093 c4 -3 10 -3 14 0 3 4 0 7 -7 7 -7 0 -10 -3 -7 -7z"/>
 <path fill="#f3d76a" d="M2343 1083 c4 -3 10 -3 14 0 3 4 0 7 -7 7 -7 0 -10 -3 -7 -7z"/>
 <path fill="#f3d76a" d="M2293 1073 c4 -3 10 -3 14 0 3 4 0 7 -7 7 -7 0 -10 -3 -7 -7z"/>
 <path fill="#f3d76a" d="M2243 1063 c4 -3 10 -3 14 0 3 4 0 7 -7 7 -7 0 -10 -3 -7 -7z"/>
 <path fill="#f3d76a" d="M2158 1053 c6 -2 18 -2 25 0 6 3 1 5 -13 5 -14 0 -19 -2 -12 -5z"/>
 <path fill="#f3d76a" d="M2193 1033 c4 -3 10 -3 14 0 3 4 0 7 -7 7 -7 0 -10 -3 -7 -7z"/>
 <path fill="#f3d76a" d="M42 900 c0 -14 2 -19 5 -12 2 6 2 18 0 25 -3 6 -5 1 -5 -13z"/>
 <path fill="#f3d76a" d="M52 850 c0 -14 2 -19 5 -12 2 6 2 18 0 25 -3 6 -5 1 -5 -13z"/>
 <path fill="#f3d76a" d="M61 785 c1 -19 18 -51 18 -35 0 8 -4 22 -9 30 -5 8 -9 11 -9 5z"/>
 <path fill="#f3d76a" d="M80 710 c0 -7 3 -10 7 -7 3 4 3 10 0 14 -4 3 -7 0 -7 -7z"/>
 <path fill="#f3d76a" d="M90 680 c0 -7 3 -10 7 -7 3 4 3 10 0 14 -4 3 -7 0 -7 -7z"/>
 <path fill="#f3d76a" d="M100 650 c0 -7 3 -10 7 -7 3 4 3 10 0 14 -4 3 -7 0 -7 -7z"/>
 <path fill="#f3d76a" d="M120 605 c0 -5 5 -17 10 -25 5 -8 10 -10 10 -5 0 6 -5 17 -10 25 -5 8 -10 11 -10 5z"/>
 <path fill="#f3d76a" d="M146 547 c3 -10 9 -15 12 -12 3 3 0 11 -7 18 -10 9 -11 8 -5 -6z"/>
 <path fill="#f3d76a" d="M165 510 c3 -5 8 -10 11 -10 3 0 2 5 -1 10 -3 6 -8 10 -11 10 -3 0 -2 -4 1 -10z"/>
 <path fill="#f3d76a" d="M190 470 c6 -11 13 -20 16 -20 2 0 0 9 -6 20 -6 11 -13 20 -16 20 -2 0 0 -9 6 -20z"/>
 <path fill="#f3d76a" d="M210 436 c0 -2 8 -10 18 -17 15 -13 16 -12 3 4 -13 16 -21 21 -21 13z"/>
 <path fill="#f3d76a" d="M255 380 c10 -11 20 -20 23 -20 3 0 -3 9 -13 20 -10 11 -20 20 -23 20 -3 0 3 -9 13 -20z"/>
 <path fill="#f3d76a" d="M280 346 c0 -2 8 -10 18 -17 15 -13 16 -12 3 4 -13 16 -21 21 -21 13z"/>
 <path fill="#f3d76a" d="M320 306 c0 -2 8 -10 18 -17 15 -13 16 -12 3 4 -13 16 -21 21 -21 13z"/>
 <path fill="#f3d76a" d="M375 260 c10 -11 20 -20 23 -20 3 0 -3 9 -13 20 -10 11 -20 20 -23 20 -3 0 3 -9 13 -20z"/>
 <path fill="#f3d76a" d="M417 229 c12 -15 73 -53 73 -46 0 2 -19 17 -42 32 -24 16 -38 22 -31 14z"/>
 <path fill="#f3d76a" d="M505 170 c3 -5 8 -10 11 -10 3 0 2 5 -1 10 -3 6 -8 10 -11 10 -3 0 -2 -4 1 -10z"/>
 <path fill="#f3d76a" d="M540 150 c8 -5 20 -10 25 -10 6 0 3 5 -5 10 -8 5 -19 10 -25 10 -5 0 -3 -5 5 -10z"/>
 <path fill="#f3d76a" d="M587 129 c7 -7 15 -10 18 -7 3 3 -2 9 -12 12 -14 6 -15 5 -6 -5z"/>
 <path fill="#f3d76a" d="M630 110 c8 -5 20 -10 25 -10 6 0 3 5 -5 10 -8 5 -19 10 -25 10 -5 0 -3 -5 5 -10z"/>
 <path fill="#f3d76a" d="M690 90 c8 -5 20 -10 25 -10 6 0 3 5 -5 10 -8 5 -19 10 -25 10 -5 0 -3 -5 5 -10z"/>
 <path fill="#f3d76a" d="M753 73 c4 -3 10 -3 14 0 3 4 0 7 -7 7 -7 0 -10 -3 -7 -7z"/>
 <path fill="#f3d76a" d="M783 63 c4 -3 10 -3 14 0 3 4 0 7 -7 7 -7 0 -10 -3 -7 -7z"/>
 <path fill="#f3d76a" d="M848 53 c6 -2 18 -2 25 0 6 3 1 5 -13 5 -14 0 -19 -2 -12 -5z"/>
 <path fill="#f3d76a" d="M903 43 c9 -2 23 -2 30 0 6 3 -1 5 -18 5 -16 0 -22 -2 -12 -5z"/>
 <path fill="#f3d76a" d="M1273 33 c125 -2 329 -2 455 0 125 1 22 2 -228 2 -250 0 -353 -1 -227 -2z"/>
 <path fill="#f3d76a" d="M1983 33 c4 -3 10 -3 14 0 3 4 0 7 -7 7 -7 0 -10 -3 -7 -7z"/>
 <path fill="#f3d76a" d="M2013 33 c4 -3 10 -3 14 0 3 4 0 7 -7 7 -7 0 -10 -3 -7 -7z"/>
 <path fill="#f3d76a" d="M2303 33 c142 -2 372 -2 510 0 139 1 23 2 -258 2 -280 0 -394 -1 -252 -2z"/>
 </g>
<g id="layer122">
 <path fill="#e1b2aa" d="M1303 3063 c141 -2 373 -2 515 0 141 1 25 2 -258 2 -283 0 -399 -1 -257 -2z"/>
 <path fill="#e1b2aa" d="M44 2978 c10 -124 33 -222 77 -333 131 -331 401 -527 790 -577 100 -13 102 -13 54 -19 l-50 -7 60 1 60 1 3 -497 2 -497 510 0 510 0 0 500 0 500 -507 2 -508 3 -3 503 -2 502 -502 0 -501 0 7 -82z"/>
 <path fill="#e1b2aa" d="M3040 2230 c0 -7 3 -10 7 -7 3 4 3 10 0 14 -4 3 -7 0 -7 -7z"/>
 <path fill="#e1b2aa" d="M848 2033 c7 -3 16 -2 19 1 4 3 -2 6 -13 5 -11 0 -14 -3 -6 -6z"/>
 <path fill="#e1b2aa" d="M803 2023 c4 -3 10 -3 14 0 3 4 0 7 -7 7 -7 0 -10 -3 -7 -7z"/>
 <path fill="#e1b2aa" d="M723 2003 c4 -3 10 -3 14 0 3 4 0 7 -7 7 -7 0 -10 -3 -7 -7z"/>
 <path fill="#e1b2aa" d="M615 1970 c-3 -6 1 -7 9 -4 18 7 21 14 7 14 -6 0 -13 -4 -16 -10z"/>
 <path fill="#e1b2aa" d="M3051 1954 c0 -11 3 -14 6 -6 3 7 2 16 -1 19 -3 4 -6 -2 -5 -13z"/>
 <path fill="#e1b2aa" d="M3040 1890 c0 -7 3 -10 7 -7 3 4 3 10 0 14 -4 3 -7 0 -7 -7z"/>
 <path fill="#e1b2aa" d="M414 1858 c-4 -7 -3 -8 4 -4 12 7 16 16 8 16 -3 0 -8 -5 -12 -12z"/>
 <path fill="#e1b2aa" d="M374 1828 c-4 -7 -3 -8 4 -4 12 7 16 16 8 16 -3 0 -8 -5 -12 -12z"/>
 <path fill="#e1b2aa" d="M3030 1830 c0 -7 3 -10 7 -7 3 4 3 10 0 14 -4 3 -7 0 -7 -7z"/>
 <path fill="#e1b2aa" d="M259 1713 l-24 -28 28 24 c15 14 27 26 27 28 0 8 -8 1 -31 -24z"/>
 <path fill="#e1b2aa" d="M110 1460 c0 -7 3 -10 7 -7 3 4 3 10 0 14 -4 3 -7 0 -7 -7z"/>
 <path fill="#e1b2aa" d="M2884 1458 c-4 -7 -3 -8 4 -4 7 4 12 9 12 12 0 8 -9 4 -16 -8z"/>
 <path fill="#e1b2aa" d="M2829 1383 c-13 -16 -12 -17 4 -4 16 13 21 21 13 21 -2 0 -10 -8 -17 -17z"/>
 <path fill="#e1b2aa" d="M70 1330 c0 -7 3 -10 7 -7 3 4 3 10 0 14 -4 3 -7 0 -7 -7z"/>
 <path fill="#e1b2aa" d="M60 1300 c0 -7 3 -10 7 -7 3 4 3 10 0 14 -4 3 -7 0 -7 -7z"/>
 <path fill="#e1b2aa" d="M2709 1263 c-13 -16 -12 -17 4 -4 16 13 21 21 13 21 -2 0 -10 -8 -17 -17z"/>
 <path fill="#e1b2aa" d="M51 1224 c0 -11 3 -14 6 -6 3 7 2 16 -1 19 -3 4 -6 -2 -5 -13z"/>
 <path fill="#e1b2aa" d="M2634 1208 c-4 -7 -3 -8 4 -4 7 4 12 9 12 12 0 8 -9 4 -16 -8z"/>
 <path fill="#e1b2aa" d="M41 1174 c0 -11 3 -14 6 -6 3 7 2 16 -1 19 -3 4 -6 -2 -5 -13z"/>
 <path fill="#e1b2aa" d="M2373 1093 c4 -3 10 -3 14 0 3 4 0 7 -7 7 -7 0 -10 -3 -7 -7z"/>
 <path fill="#e1b2aa" d="M2343 1083 c4 -3 10 -3 14 0 3 4 0 7 -7 7 -7 0 -10 -3 -7 -7z"/>
 <path fill="#e1b2aa" d="M2293 1073 c4 -3 10 -3 14 0 3 4 0 7 -7 7 -7 0 -10 -3 -7 -7z"/>
 <path fill="#e1b2aa" d="M2243 1063 c4 -3 10 -3 14 0 3 4 0 7 -7 7 -7 0 -10 -3 -7 -7z"/>
 <path fill="#e1b2aa" d="M2158 1053 c6 -2 18 -2 25 0 6 3 1 5 -13 5 -14 0 -19 -2 -12 -5z"/>
 <path fill="#e1b2aa" d="M2193 1033 c4 -3 10 -3 14 0 3 4 0 7 -7 7 -7 0 -10 -3 -7 -7z"/>
 <path fill="#e1b2aa" d="M40 890 c0 -7 3 -10 7 -7 3 4 3 10 0 14 -4 3 -7 0 -7 -7z"/>
 <path fill="#e1b2aa" d="M50 840 c0 -7 3 -10 7 -7 3 4 3 10 0 14 -4 3 -7 0 -7 -7z"/>
 <path fill="#e1b2aa" d="M280 346 c0 -2 8 -10 18 -17 15 -13 16 -12 3 4 -13 16 -21 21 -21 13z"/>
 <path fill="#e1b2aa" d="M320 306 c0 -2 8 -10 18 -17 15 -13 16 -12 3 4 -13 16 -21 21 -21 13z"/>
 <path fill="#e1b2aa" d="M843 53 c4 -3 10 -3 14 0 3 4 0 7 -7 7 -7 0 -10 -3 -7 -7z"/>
 <path fill="#e1b2aa" d="M893 43 c4 -3 10 -3 14 0 3 4 0 7 -7 7 -7 0 -10 -3 -7 -7z"/>
 <path fill="#e1b2aa" d="M1273 33 c125 -2 329 -2 455 0 125 1 22 2 -228 2 -250 0 -353 -1 -227 -2z"/>
 <path fill="#e1b2aa" d="M1983 33 c4 -3 10 -3 14 0 3 4 0 7 -7 7 -7 0 -10 -3 -7 -7z"/>
 <path fill="#e1b2aa" d="M2013 33 c4 -3 10 -3 14 0 3 4 0 7 -7 7 -7 0 -10 -3 -7 -7z"/>
 <path fill="#e1b2aa" d="M2303 33 c142 -2 372 -2 510 0 139 1 23 2 -258 2 -280 0 -394 -1 -252 -2z"/>
 </g>
<g id="layer123">
 <path fill="#8dd8f8" d="M1303 3063 c141 -2 373 -2 515 0 141 1 25 2 -258 2 -283 0 -399 -1 -257 -2z"/>
 <path fill="#8dd8f8" d="M44 2978 c10 -124 33 -222 77 -333 131 -331 401 -527 790 -577 100 -13 102 -13 54 -19 l-50 -7 60 1 60 1 3 -497 2 -497 510 0 510 0 0 500 0 500 -507 2 -508 3 -3 503 -2 502 -502 0 -501 0 7 -82z"/>
 <path fill="#8dd8f8" d="M848 2033 c7 -3 16 -2 19 1 4 3 -2 6 -13 5 -11 0 -14 -3 -6 -6z"/>
 <path fill="#8dd8f8" d="M803 2023 c4 -3 10 -3 14 0 3 4 0 7 -7 7 -7 0 -10 -3 -7 -7z"/>
 <path fill="#8dd8f8" d="M723 2003 c4 -3 10 -3 14 0 3 4 0 7 -7 7 -7 0 -10 -3 -7 -7z"/>
 <path fill="#8dd8f8" d="M615 1970 c-3 -6 1 -7 9 -4 18 7 21 14 7 14 -6 0 -13 -4 -16 -10z"/>
 <path fill="#8dd8f8" d="M3051 1954 c0 -11 3 -14 6 -6 3 7 2 16 -1 19 -3 4 -6 -2 -5 -13z"/>
 <path fill="#8dd8f8" d="M3040 1890 c0 -7 3 -10 7 -7 3 4 3 10 0 14 -4 3 -7 0 -7 -7z"/>
 <path fill="#8dd8f8" d="M414 1858 c-4 -7 -3 -8 4 -4 12 7 16 16 8 16 -3 0 -8 -5 -12 -12z"/>
 <path fill="#8dd8f8" d="M374 1828 c-4 -7 -3 -8 4 -4 12 7 16 16 8 16 -3 0 -8 -5 -12 -12z"/>
 <path fill="#8dd8f8" d="M3030 1830 c0 -7 3 -10 7 -7 3 4 3 10 0 14 -4 3 -7 0 -7 -7z"/>
 <path fill="#8dd8f8" d="M259 1713 l-24 -28 28 24 c15 14 27 26 27 28 0 8 -8 1 -31 -24z"/>
 <path fill="#8dd8f8" d="M110 1460 c0 -7 3 -10 7 -7 3 4 3 10 0 14 -4 3 -7 0 -7 -7z"/>
 <path fill="#8dd8f8" d="M2884 1458 c-4 -7 -3 -8 4 -4 7 4 12 9 12 12 0 8 -9 4 -16 -8z"/>
 <path fill="#8dd8f8" d="M2829 1383 c-13 -16 -12 -17 4 -4 16 13 21 21 13 21 -2 0 -10 -8 -17 -17z"/>
 <path fill="#8dd8f8" d="M70 1330 c0 -7 3 -10 7 -7 3 4 3 10 0 14 -4 3 -7 0 -7 -7z"/>
 <path fill="#8dd8f8" d="M60 1300 c0 -7 3 -10 7 -7 3 4 3 10 0 14 -4 3 -7 0 -7 -7z"/>
 <path fill="#8dd8f8" d="M2709 1263 c-13 -16 -12 -17 4 -4 16 13 21 21 13 21 -2 0 -10 -8 -17 -17z"/>
 <path fill="#8dd8f8" d="M51 1224 c0 -11 3 -14 6 -6 3 7 2 16 -1 19 -3 4 -6 -2 -5 -13z"/>
 <path fill="#8dd8f8" d="M2634 1208 c-4 -7 -3 -8 4 -4 7 4 12 9 12 12 0 8 -9 4 -16 -8z"/>
 <path fill="#8dd8f8" d="M41 1174 c0 -11 3 -14 6 -6 3 7 2 16 -1 19 -3 4 -6 -2 -5 -13z"/>
 <path fill="#8dd8f8" d="M2373 1093 c4 -3 10 -3 14 0 3 4 0 7 -7 7 -7 0 -10 -3 -7 -7z"/>
 <path fill="#8dd8f8" d="M2343 1083 c4 -3 10 -3 14 0 3 4 0 7 -7 7 -7 0 -10 -3 -7 -7z"/>
 <path fill="#8dd8f8" d="M2293 1073 c4 -3 10 -3 14 0 3 4 0 7 -7 7 -7 0 -10 -3 -7 -7z"/>
 <path fill="#8dd8f8" d="M2243 1063 c4 -3 10 -3 14 0 3 4 0 7 -7 7 -7 0 -10 -3 -7 -7z"/>
 <path fill="#8dd8f8" d="M2158 1053 c6 -2 18 -2 25 0 6 3 1 5 -13 5 -14 0 -19 -2 -12 -5z"/>
 <path fill="#8dd8f8" d="M40 890 c0 -7 3 -10 7 -7 3 4 3 10 0 14 -4 3 -7 0 -7 -7z"/>
 <path fill="#8dd8f8" d="M50 840 c0 -7 3 -10 7 -7 3 4 3 10 0 14 -4 3 -7 0 -7 -7z"/>
 <path fill="#8dd8f8" d="M280 346 c0 -2 8 -10 18 -17 15 -13 16 -12 3 4 -13 16 -21 21 -21 13z"/>
 <path fill="#8dd8f8" d="M320 306 c0 -2 8 -10 18 -17 15 -13 16 -12 3 4 -13 16 -21 21 -21 13z"/>
 <path fill="#8dd8f8" d="M843 53 c4 -3 10 -3 14 0 3 4 0 7 -7 7 -7 0 -10 -3 -7 -7z"/>
 <path fill="#8dd8f8" d="M893 43 c4 -3 10 -3 14 0 3 4 0 7 -7 7 -7 0 -10 -3 -7 -7z"/>
 <path fill="#8dd8f8" d="M1273 33 c125 -2 329 -2 455 0 125 1 22 2 -228 2 -250 0 -353 -1 -227 -2z"/>
 <path fill="#8dd8f8" d="M1983 33 c4 -3 10 -3 14 0 3 4 0 7 -7 7 -7 0 -10 -3 -7 -7z"/>
 <path fill="#8dd8f8" d="M2013 33 c4 -3 10 -3 14 0 3 4 0 7 -7 7 -7 0 -10 -3 -7 -7z"/>
 </g>
<g id="layer124">
 <path fill="#e7de9a" d="M1303 3063 c141 -2 373 -2 515 0 141 1 25 2 -258 2 -283 0 -399 -1 -257 -2z"/>
 <path fill="#e7de9a" d="M40 3050 c0 -5 7 -7 15 -4 8 4 15 8 15 10 0 2 -7 4 -15 4 -8 0 -15 -4 -15 -10z"/>
 <path fill="#e7de9a" d="M328 3053 c127 -2 337 -2 465 0 127 1 23 2 -233 2 -256 0 -360 -1 -232 -2z"/>
 <path fill="#e7de9a" d="M42 2985 c0 -16 2 -22 5 -12 2 9 2 23 0 30 -3 6 -5 -1 -5 -18z"/>
 <path fill="#e7de9a" d="M52 2910 c0 -19 2 -27 5 -17 2 9 2 25 0 35 -3 9 -5 1 -5 -18z"/>
 <path fill="#e7de9a" d="M62 2845 c0 -16 2 -22 5 -12 2 9 2 23 0 30 -3 6 -5 -1 -5 -18z"/>
 <path fill="#e7de9a" d="M71 2794 c0 -11 3 -14 6 -6 3 7 2 16 -1 19 -3 4 -6 -2 -5 -13z"/>
 <path fill="#e7de9a" d="M81 2754 c0 -11 3 -14 6 -6 3 7 2 16 -1 19 -3 4 -6 -2 -5 -13z"/>
 <path fill="#e7de9a" d="M96 2710 c3 -14 11 -32 16 -40 6 -10 7 -7 2 10 -3 14 -11 32 -16 40 -6 10 -7 7 -2 -10z"/>
 <path fill="#e7de9a" d="M120 2640 c0 -7 3 -10 7 -7 3 4 3 10 0 14 -4 3 -7 0 -7 -7z"/>
 <path fill="#e7de9a" d="M136 2607 c3 -10 9 -15 12 -12 3 3 0 11 -7 18 -10 9 -11 8 -5 -6z"/>
 <path fill="#e7de9a" d="M150 2570 c0 -7 3 -10 7 -7 3 4 3 10 0 14 -4 3 -7 0 -7 -7z"/>
 <path fill="#e7de9a" d="M170 2530 c6 -11 13 -20 16 -20 2 0 0 9 -6 20 -6 11 -13 20 -16 20 -2 0 0 -9 6 -20z"/>
 <path fill="#e7de9a" d="M195 2490 c3 -5 8 -10 11 -10 3 0 2 5 -1 10 -3 6 -8 10 -11 10 -3 0 -2 -4 1 -10z"/>
 <path fill="#e7de9a" d="M215 2460 c3 -5 8 -10 11 -10 3 0 2 5 -1 10 -3 6 -8 10 -11 10 -3 0 -2 -4 1 -10z"/>
 <path fill="#e7de9a" d="M245 2420 c10 -11 20 -20 22 -20 2 0 -2 9 -9 20 -7 11 -17 20 -22 20 -5 0 -1 -9 9 -20z"/>
 <path fill="#e7de9a" d="M320 2335 c54 -54 81 -75 44 -33 -32 36 -87 88 -93 88 -3 0 19 -25 49 -55z"/>
 <path fill="#e7de9a" d="M390 2276 c0 -2 8 -10 18 -17 15 -13 16 -12 3 4 -13 16 -21 21 -21 13z"/>
 <path fill="#e7de9a" d="M440 2236 c0 -3 9 -10 20 -16 11 -6 20 -8 20 -6 0 3 -9 10 -20 16 -11 6 -20 8 -20 6z"/>
 <path fill="#e7de9a" d="M490 2204 c0 -2 9 -8 20 -14 15 -8 18 -8 14 3 -4 11 -34 21 -34 11z"/>
 <path fill="#e7de9a" d="M560 2165 c14 -8 30 -14 35 -14 6 0 -1 6 -15 14 -14 8 -29 14 -35 14 -5 0 1 -6 15 -14z"/>
 <path fill="#e7de9a" d="M620 2140 c20 -13 33 -13 25 0 -3 6 -14 10 -23 10 -15 0 -15 -2 -2 -10z"/>
 <path fill="#e7de9a" d="M675 2120 c27 -12 43 -12 25 0 -8 5 -22 9 -30 9 -10 0 -8 -3 5 -9z"/>
 <path fill="#e7de9a" d="M723 2103 c4 -3 10 -3 14 0 3 4 0 7 -7 7 -7 0 -10 -3 -7 -7z"/>
 <path fill="#e7de9a" d="M763 2093 c4 -3 10 -3 14 0 3 4 0 7 -7 7 -7 0 -10 -3 -7 -7z"/>
 <path fill="#e7de9a" d="M813 2083 c9 -2 23 -2 30 0 6 3 -1 5 -18 5 -16 0 -22 -2 -12 -5z"/>
 <path fill="#e7de9a" d="M868 2073 c6 -2 18 -2 25 0 6 3 1 5 -13 5 -14 0 -19 -2 -12 -5z"/>
 <path fill="#e7de9a" d="M970 2061 l45 -5 -50 -7 -50 -7 60 1 60 1 3 -497 2 -497 510 0 510 0 0 500 0 500 -504 0 c-326 0 -507 4 -511 10 -3 6 -32 9 -63 8 -57 -1 -57 -2 -12 -7z"/>
 <path fill="#e7de9a" d="M848 2033 c7 -3 16 -2 19 1 4 3 -2 6 -13 5 -11 0 -14 -3 -6 -6z"/>
 <path fill="#e7de9a" d="M803 2023 c4 -3 10 -3 14 0 3 4 0 7 -7 7 -7 0 -10 -3 -7 -7z"/>
 <path fill="#e7de9a" d="M723 2003 c4 -3 10 -3 14 0 3 4 0 7 -7 7 -7 0 -10 -3 -7 -7z"/>
 <path fill="#e7de9a" d="M615 1970 c-3 -6 1 -7 9 -4 18 7 21 14 7 14 -6 0 -13 -4 -16 -10z"/>
 <path fill="#e7de9a" d="M3051 1954 c0 -11 3 -14 6 -6 3 7 2 16 -1 19 -3 4 -6 -2 -5 -13z"/>
 <path fill="#e7de9a" d="M3040 1890 c0 -7 3 -10 7 -7 3 4 3 10 0 14 -4 3 -7 0 -7 -7z"/>
 <path fill="#e7de9a" d="M414 1858 c-4 -7 -3 -8 4 -4 12 7 16 16 8 16 -3 0 -8 -5 -12 -12z"/>
 <path fill="#e7de9a" d="M374 1828 c-4 -7 -3 -8 4 -4 12 7 16 16 8 16 -3 0 -8 -5 -12 -12z"/>
 <path fill="#e7de9a" d="M3030 1830 c0 -7 3 -10 7 -7 3 4 3 10 0 14 -4 3 -7 0 -7 -7z"/>
 <path fill="#e7de9a" d="M259 1713 l-24 -28 28 24 c15 14 27 26 27 28 0 8 -8 1 -31 -24z"/>
 <path fill="#e7de9a" d="M110 1460 c0 -7 3 -10 7 -7 3 4 3 10 0 14 -4 3 -7 0 -7 -7z"/>
 <path fill="#e7de9a" d="M2884 1458 c-4 -7 -3 -8 4 -4 7 4 12 9 12 12 0 8 -9 4 -16 -8z"/>
 <path fill="#e7de9a" d="M2829 1383 c-13 -16 -12 -17 4 -4 16 13 21 21 13 21 -2 0 -10 -8 -17 -17z"/>
 <path fill="#e7de9a" d="M70 1330 c0 -7 3 -10 7 -7 3 4 3 10 0 14 -4 3 -7 0 -7 -7z"/>
 <path fill="#e7de9a" d="M60 1300 c0 -7 3 -10 7 -7 3 4 3 10 0 14 -4 3 -7 0 -7 -7z"/>
 <path fill="#e7de9a" d="M2709 1263 c-13 -16 -12 -17 4 -4 16 13 21 21 13 21 -2 0 -10 -8 -17 -17z"/>
 <path fill="#e7de9a" d="M51 1224 c0 -11 3 -14 6 -6 3 7 2 16 -1 19 -3 4 -6 -2 -5 -13z"/>
 <path fill="#e7de9a" d="M2634 1208 c-4 -7 -3 -8 4 -4 7 4 12 9 12 12 0 8 -9 4 -16 -8z"/>
 <path fill="#e7de9a" d="M41 1174 c0 -11 3 -14 6 -6 3 7 2 16 -1 19 -3 4 -6 -2 -5 -13z"/>
 <path fill="#e7de9a" d="M2373 1093 c4 -3 10 -3 14 0 3 4 0 7 -7 7 -7 0 -10 -3 -7 -7z"/>
 <path fill="#e7de9a" d="M2343 1083 c4 -3 10 -3 14 0 3 4 0 7 -7 7 -7 0 -10 -3 -7 -7z"/>
 <path fill="#e7de9a" d="M2293 1073 c4 -3 10 -3 14 0 3 4 0 7 -7 7 -7 0 -10 -3 -7 -7z"/>
 <path fill="#e7de9a" d="M2243 1063 c4 -3 10 -3 14 0 3 4 0 7 -7 7 -7 0 -10 -3 -7 -7z"/>
 <path fill="#e7de9a" d="M2158 1053 c6 -2 18 -2 25 0 6 3 1 5 -13 5 -14 0 -19 -2 -12 -5z"/>
 <path fill="#e7de9a" d="M40 890 c0 -7 3 -10 7 -7 3 4 3 10 0 14 -4 3 -7 0 -7 -7z"/>
 <path fill="#e7de9a" d="M50 840 c0 -7 3 -10 7 -7 3 4 3 10 0 14 -4 3 -7 0 -7 -7z"/>
 <path fill="#e7de9a" d="M280 346 c0 -2 8 -10 18 -17 15 -13 16 -12 3 4 -13 16 -21 21 -21 13z"/>
 <path fill="#e7de9a" d="M320 306 c0 -2 8 -10 18 -17 15 -13 16 -12 3 4 -13 16 -21 21 -21 13z"/>
 <path fill="#e7de9a" d="M843 53 c4 -3 10 -3 14 0 3 4 0 7 -7 7 -7 0 -10 -3 -7 -7z"/>
 <path fill="#e7de9a" d="M893 43 c4 -3 10 -3 14 0 3 4 0 7 -7 7 -7 0 -10 -3 -7 -7z"/>
 <path fill="#e7de9a" d="M1273 33 c125 -2 329 -2 455 0 125 1 22 2 -228 2 -250 0 -353 -1 -227 -2z"/>
 <path fill="#e7de9a" d="M1983 33 c4 -3 10 -3 14 0 3 4 0 7 -7 7 -7 0 -10 -3 -7 -7z"/>
 <path fill="#e7de9a" d="M2013 33 c4 -3 10 -3 14 0 3 4 0 7 -7 7 -7 0 -10 -3 -7 -7z"/>
 </g>
<g id="layer125">
 <path fill="#a0d9ed" d="M1303 3063 c141 -2 373 -2 515 0 141 1 25 2 -258 2 -283 0 -399 -1 -257 -2z"/>
 <path fill="#a0d9ed" d="M40 3050 c0 -5 7 -7 15 -4 8 4 15 8 15 10 0 2 -7 4 -15 4 -8 0 -15 -4 -15 -10z"/>
 <path fill="#a0d9ed" d="M328 3053 c127 -2 337 -2 465 0 127 1 23 2 -233 2 -256 0 -360 -1 -232 -2z"/>
 <path fill="#a0d9ed" d="M42 2985 c0 -16 2 -22 5 -12 2 9 2 23 0 30 -3 6 -5 -1 -5 -18z"/>
 <path fill="#a0d9ed" d="M52 2910 c0 -19 2 -27 5 -17 2 9 2 25 0 35 -3 9 -5 1 -5 -18z"/>
 <path fill="#a0d9ed" d="M62 2845 c0 -16 2 -22 5 -12 2 9 2 23 0 30 -3 6 -5 -1 -5 -18z"/>
 <path fill="#a0d9ed" d="M71 2794 c0 -11 3 -14 6 -6 3 7 2 16 -1 19 -3 4 -6 -2 -5 -13z"/>
 <path fill="#a0d9ed" d="M81 2754 c0 -11 3 -14 6 -6 3 7 2 16 -1 19 -3 4 -6 -2 -5 -13z"/>
 <path fill="#a0d9ed" d="M96 2710 c3 -14 11 -32 16 -40 6 -10 7 -7 2 10 -3 14 -11 32 -16 40 -6 10 -7 7 -2 -10z"/>
 <path fill="#a0d9ed" d="M120 2640 c0 -7 3 -10 7 -7 3 4 3 10 0 14 -4 3 -7 0 -7 -7z"/>
 <path fill="#a0d9ed" d="M136 2607 c3 -10 9 -15 12 -12 3 3 0 11 -7 18 -10 9 -11 8 -5 -6z"/>
 <path fill="#a0d9ed" d="M150 2570 c0 -7 3 -10 7 -7 3 4 3 10 0 14 -4 3 -7 0 -7 -7z"/>
 <path fill="#a0d9ed" d="M170 2530 c6 -11 13 -20 16 -20 2 0 0 9 -6 20 -6 11 -13 20 -16 20 -2 0 0 -9 6 -20z"/>
 <path fill="#a0d9ed" d="M195 2490 c3 -5 8 -10 11 -10 3 0 2 5 -1 10 -3 6 -8 10 -11 10 -3 0 -2 -4 1 -10z"/>
 <path fill="#a0d9ed" d="M215 2460 c3 -5 8 -10 11 -10 3 0 2 5 -1 10 -3 6 -8 10 -11 10 -3 0 -2 -4 1 -10z"/>
 <path fill="#a0d9ed" d="M245 2420 c10 -11 20 -20 22 -20 2 0 -2 9 -9 20 -7 11 -17 20 -22 20 -5 0 -1 -9 9 -20z"/>
 <path fill="#a0d9ed" d="M320 2335 c54 -54 81 -75 44 -33 -32 36 -87 88 -93 88 -3 0 19 -25 49 -55z"/>
 <path fill="#a0d9ed" d="M390 2276 c0 -2 8 -10 18 -17 15 -13 16 -12 3 4 -13 16 -21 21 -21 13z"/>
 <path fill="#a0d9ed" d="M440 2236 c0 -3 9 -10 20 -16 11 -6 20 -8 20 -6 0 3 -9 10 -20 16 -11 6 -20 8 -20 6z"/>
 <path fill="#a0d9ed" d="M490 2204 c0 -2 9 -8 20 -14 15 -8 18 -8 14 3 -4 11 -34 21 -34 11z"/>
 <path fill="#a0d9ed" d="M560 2165 c14 -8 30 -14 35 -14 6 0 -1 6 -15 14 -14 8 -29 14 -35 14 -5 0 1 -6 15 -14z"/>
 <path fill="#a0d9ed" d="M620 2140 c20 -13 33 -13 25 0 -3 6 -14 10 -23 10 -15 0 -15 -2 -2 -10z"/>
 <path fill="#a0d9ed" d="M675 2120 c27 -12 43 -12 25 0 -8 5 -22 9 -30 9 -10 0 -8 -3 5 -9z"/>
 <path fill="#a0d9ed" d="M723 2103 c4 -3 10 -3 14 0 3 4 0 7 -7 7 -7 0 -10 -3 -7 -7z"/>
 <path fill="#a0d9ed" d="M763 2093 c4 -3 10 -3 14 0 3 4 0 7 -7 7 -7 0 -10 -3 -7 -7z"/>
 <path fill="#a0d9ed" d="M813 2083 c9 -2 23 -2 30 0 6 3 -1 5 -18 5 -16 0 -22 -2 -12 -5z"/>
 <path fill="#a0d9ed" d="M868 2073 c6 -2 18 -2 25 0 6 3 1 5 -13 5 -14 0 -19 -2 -12 -5z"/>
 <path fill="#a0d9ed" d="M980 2063 c30 -3 58 -10 62 -16 4 -7 8 -234 8 -504 l0 -493 500 0 500 0 0 500 0 500 -499 0 c-323 0 -502 4 -506 10 -3 6 -32 9 -63 8 l-57 -2 55 -3z"/>
 </g>
<g id="layer126">
 <path fill="#fdfedf" d="M1048 1550 l2 -500 500 0 500 0 0 500 0 500 -502 0 -503 0 3 -500z"/>
 </g>
<g id="layer127">
 <path fill="#fefffe" d="M1057 1848 c2 -112 4 -333 5 -493 l3 -290 485 0 485 0 5 493 5 492 -495 0 -495 0 2 -202z"/>
 </g>

</svg>